<svg xmlns="http://www.w3.org/2000/svg" width="300" height="px" viewBox="0 0 300 300"><path d="M0 0h300v300H0z" style="fill:#02001f;fill-opacity:1;stroke:none"/><path d="m126.324 56.309-.683.308q-2.848.704-13.282 8.328a57 57 0 0 0-7.277 7.266c-4.434 5.3-8.023 11.512-10.777 18.633q-3.64 10.541-3.512 20.941.983 12.966 2.312 15.52A67.4 67.4 0 0 0 97 137.559q5.086 10.917 17.871 21.437 3.135-5.667 9.8-5.879 7.057.439 9.876 6.563c2.71-6.266 8.762-9.649 18.148-10.153 9.043.938 14.805 5.985 17.282 15.133q3.943-2.877 7.472-.035 12.798-6.441 21.488-18.195-13.307 5.296-22.695 5.379c-1.867.129-7.308-.54-16.316-2.016l-6.703-2.238c-7.235-3.121-13.434-6.903-18.606-11.34a55.6 55.6 0 0 1-6.984-7.153q-7.091-9.989-7.578-12.578c-3.922-9.535-5.692-18.793-5.301-27.777a55.7 55.7 0 0 1 2.203-13.27l2.313-6.48c1.812-4.285 4.164-8.504 7.054-12.648m0 0" style="stroke:none;fill-rule:nonzero;fill:#d8d8d8;fill-opacity:1"/><path d="m126.324 56.309-.41.183q-4.858 3.316-15.09 16.785-5.895 8.533-7.793 18.032-4.195 21.293 8.168 44.726 2.11 4.244 8.192 9.52 10.634 7.862 17.453 10.48 6.015-6.386 13.754-6.566c8.324.164 14.289 3.695 17.886 10.601 2.36-.043 7.391-1.703 15.102-4.98q6.72-2.982 15.351-8.66c-13.363 5.836-26.996 6.777-40.894 2.832-16.23-5.45-27.988-14.621-35.285-27.528q-4.653-8.061-6.469-16.832-1.08-2.742-1.539-15.222.205-9.834 3.691-18.825c2.391-5.808 5.016-10.66 7.883-14.546m0 0" style="stroke:none;fill-rule:nonzero;fill:#fff;fill-opacity:1"/><path d="M97.79 104.262c-.09 1.066-.927 1.863-1.868 1.785s-1.629-1.008-1.54-2.074c.09-1.063.927-1.864 1.868-1.785.941.082 1.629 1.007 1.54 2.074M109.418 137.785a.847.847 0 0 1-1.191.098.847.847 0 0 1-.098-1.192.843.843 0 0 1 1.191-.097c.356.3.399.836.098 1.191M109.688 73.02c-.102.835-.81 1.433-1.583 1.343-.773-.093-1.32-.847-1.218-1.683.101-.836.808-1.438 1.586-1.344.77.094 1.316.848 1.215 1.684m0 0" style="stroke:none;fill-rule:nonzero;fill:#b5b5b5;fill-opacity:1"/><path d="M168.266 155.047c-.325.55-1.055.723-1.641.383s-.797-1.067-.477-1.618c.325-.55 1.059-.722 1.641-.382.586.34.797 1.066.477 1.617M146.816 149.781l-.183.004-.18.016-.18.027q-.174.037-.343.09l-.168.062q-.51.21-.914.602.28-.1.566-.187c.188-.06.383-.118.574-.172l.293-.082q.583-.159 1.192-.282a2.8 2.8 0 0 0-.657-.078M134.906 149.957c.61.125 1 .723.871 1.332-.125.61-.722 1-1.332.871s-1-.722-.87-1.332c.128-.61.722-1 1.331-.871M127.04 134.82a4.59 4.59 0 0 1 .67 6.453 4.594 4.594 0 0 1-6.456.672 4.594 4.594 0 0 1-.672-6.457 4.593 4.593 0 0 1 6.457-.668M107.621 101.668a1.04 1.04 0 0 1-.219 1.457c-.46.344-1.113.25-1.457-.215a1.04 1.04 0 0 1 .22-1.457 1.04 1.04 0 0 1 1.456.215M109.965 86.168a1.233 1.233 0 0 1-2.371.68 1.233 1.233 0 0 1 2.371-.68m0 0" style="stroke:none;fill-rule:nonzero;fill:#d8d8d8;fill-opacity:1"/><path d="M102.273 133.297h-.015q-.924-.019-1.633.683c-.398.43-.61.942-.629 1.547q.018.504.152.797.2.411.278.48.116.152.261.298a2.2 2.2 0 0 0 .942.535q.082.04.574.082.2.004.387-.028.103.006.535-.164.316-.131.68-.484.52-.579.539-1.305.012-.353-.13-.558-.01.327-.093.61a2 2 0 0 1-.101.269q-.16.31-.215.355-.104.176-.473.434c-.144.09-.309.164-.484.214q-1.008.222-1.664-.511c-.344-.473-.465-.953-.368-1.45a1.47 1.47 0 0 1 .493-.859q.13-.111.296-.21l.176-.09q.701-.31 1.508.078.257.105.648.562.229.293.293.574a2.2 2.2 0 0 0-.136-.629q-.229-.485-.422-.636a2.3 2.3 0 0 0-.59-.41 2 2 0 0 0-.312-.118q-.075-.039-.497-.066M93.629 112.168c0 .008-.008.043-.008.066-.004.024-.008.036-.02.07a.4.4 0 0 1-.019.063c-.012.024-.023.055-.027.063-.008.007-.024.039-.035.058-.008.02-.016.024-.036.051s-.023.035-.039.047c-.015.016-.039.039-.043.047a.3.3 0 0 0-.047.039c-.015.012-.023.016-.05.031-.028.02-.035.024-.051.031-.02.008-.05.024-.055.024-.004.004-.039.012-.054.02-.02.003-.028.003-.06.011-.034.008-.038.008-.058.008s-.054.004-.058.004c-.004-.004-.04-.004-.059-.004l-.058-.012c-.032-.008-.036-.008-.051-.015-.02-.004-.051-.016-.051-.016a.3.3 0 0 0-.05-.027c-.016-.008-.016-.008-.044-.028-.027-.015-.027-.02-.043-.027l-.035-.035s-.023-.028-.035-.04c-.012-.011-.012-.011-.031-.038-.02-.028-.02-.028-.024-.043l-.023-.047c.004 0-.012-.031-.016-.047-.008-.016-.004-.016-.011-.047-.008-.035-.008-.031-.008-.05-.004-.016-.008-.052-.012-.052-.008.004-.012-.03-.012-.05-.004-.016-.004-.016-.004-.051.004-.035 0-.035.004-.05.004-.017.008-.052.008-.052s.008-.03.016-.05c.004-.016.004-.016.015-.047.016-.032.012-.032.024-.047l.023-.043c0-.004.024-.031.031-.047l.04-.04c.023-.019.023-.023.039-.034.015-.012.039-.032.043-.032l.046-.03c.016-.013.02-.013.051-.028.035-.012.04-.016.055-.02a.4.4 0 0 1 .062-.015c.004-.004.04-.008.059-.012.02-.004.027-.004.062-.004a.3.3 0 0 1 .063.004c.02 0 .05.004.059.008.007 0 .039.008.062.012.02.003.027.003.059.02.03.01.039.01.058.022.02.008.047.024.055.032.012.004.039.02.055.035.02.012.027.02.05.039.028.023.036.031.051.047l.047.055c.008.007.023.039.04.058.01.02.019.031.034.063a.2.2 0 0 1 .024.07c.004.023.008.059.011.066v.008l-.007-.05c-.008-.036-.008-.047-.016-.075-.004-.023-.008-.058-.012-.074l-.02-.07c-.003-.024-.011-.04-.023-.07l-.035-.071-.043-.062c-.008-.016-.031-.043-.047-.063-.015-.02-.03-.031-.054-.055-.024-.023-.04-.035-.059-.05l-.066-.047a.71.71 0 0 0-.316-.11c-.024-.004-.06-.004-.09-.008-.028 0-.051 0-.087.004a.3.3 0 0 0-.09.012.6.6 0 0 0-.171.05.3.3 0 0 0-.078.036c-.032.016-.055.027-.079.047a.5.5 0 0 0-.07.055c-.02.015-.043.039-.066.058-.02.02-.035.04-.059.067a1 1 0 0 0-.101.148c-.012.023-.028.055-.04.082q-.015.04-.03.086c-.009.035-.016.063-.02.094-.008.031-.012.066-.016.094 0 .03-.004.066-.004.097 0 .035-.008.067 0 .102s.012.062.024.093q.017.049.035.09.02.047.039.086a.4.4 0 0 0 .055.082c.02.028.035.051.054.07a1 1 0 0 0 .133.13c.023.019.043.035.074.05q.04.03.075.047c.027.012.058.028.082.04.027.007.058.019.085.027.032.007.055.015.09.02.032.003.059.01.09.01s.067.005.09 0c.027 0 .063 0 .094-.007.031 0 .054-.008.09-.016l.086-.023c.027-.012.058-.023.082-.035.023-.008.05-.028.074-.04a.3.3 0 0 0 .07-.05c.027-.02.047-.031.067-.05.019-.02.042-.044.054-.06.016-.015.035-.042.055-.066a1 1 0 0 0 .043-.066l.035-.074c.008-.024.023-.055.027-.075a.3.3 0 0 0 .02-.074c.008-.027.008-.043.012-.078s.004-.05.004-.078-.004-.063-.004-.078l-.012-.07c-.008-.028-.043-.016-.043-.024M117.285 150.531h-.062q-.556.024-.75.2.712 0 .992.117c.254.074.484.191.7.34q.66.491.843 1.222c.09.29.086.653-.004 1.078q-.152.558-.613.98-.293.276-.786.423-.481.157-.968.082c-.61-.098-1.09-.446-1.45-1.036-.324-.562-.355-1.199-.09-1.902q.47-.954 1.348-1.316c-.61.086-1.105.347-1.488.797-.375.445-.574.988-.598 1.62q0 .6.293 1.231l.176.281a2.9 2.9 0 0 0 .887.836l.265.137c.41.164.786.238 1.118.23.074 0 .144 0 .218-.007.809-.688 1.532-1.18 2.157-1.477.191-.375.285-.785.289-1.238q-.012-1.035-.727-1.832-.69-.719-1.75-.766M181.648 158.184h-.003a.8.8 0 0 0-.258.043 1 1 0 0 0-.117.058q-.006.005 0 .04a.7.7 0 0 1 .406.03q.17.077.265.211a.65.65 0 0 1 .102.336l-.008.075a.4.4 0 0 1-.047.136 1 1 0 0 1-.097.14.6.6 0 0 1-.164.102.2.2 0 0 1-.04.032.7.7 0 0 1-.234.047.58.58 0 0 1-.406-.23.64.64 0 0 1-.098-.466.58.58 0 0 1 .262-.402 1 1 0 0 0-.223.133 1 1 0 0 0-.136.156.8.8 0 0 0-.114.395.83.83 0 0 0 .282.609.86.86 0 0 0 .605.203c.102-.004.21-.031.332-.074a1 1 0 0 0 .168-.121c.086-.09.148-.18.188-.262a.8.8 0 0 0 .07-.2.877.877 0 0 0-.016-.426.848.848 0 0 0-.18-.312 1 1 0 0 0-.277-.199.9.9 0 0 0-.262-.054m0 0" style="stroke:none;fill-rule:nonzero;fill:#b5b5b5;fill-opacity:1"/><path d="M114.516 110.96c-.008.028-.008.165-.008.255 0 .094-.008.14-.024.27-.011.128-.015.175-.039.257-.02.086-.043.207-.054.25-.016.04-.055.16-.082.238-.028.079-.047.114-.102.227-.055.11-.07.145-.117.215-.043.066-.11.172-.133.2-.023.03-.102.124-.152.187-.051.062-.078.086-.168.168a1.3 1.3 0 0 1-.184.156 4 4 0 0 1-.191.137c-.032.02-.14.078-.211.117s-.102.05-.223.093a1.3 1.3 0 0 1-.23.079c-.078.02-.207.05-.239.054-.03.004-.164.02-.246.028-.078.007-.11.007-.238.004-.125 0-.156-.004-.234-.016-.075-.012-.2-.031-.227-.04l-.219-.062c-.074-.023-.097-.035-.21-.086a1 1 0 0 1-.204-.097c-.062-.04-.168-.102-.191-.117l-.176-.137c-.059-.043-.074-.063-.164-.153a1 1 0 0 1-.145-.164c-.046-.062-.12-.16-.132-.18s-.078-.128-.118-.19c-.035-.067-.043-.09-.093-.208-.047-.117-.055-.136-.075-.215-.019-.074-.054-.199-.062-.222-.008-.024-.027-.153-.043-.23-.016-.075-.016-.098-.02-.227-.003-.13-.007-.153 0-.227.004-.074.016-.199.02-.222l.047-.22c.016-.073.023-.097.066-.214.043-.113.051-.14.082-.207.035-.063.09-.172.106-.195.012-.024.078-.125.12-.188.044-.062.06-.086.145-.176.082-.093.098-.113.157-.164.054-.05.148-.133.172-.148.023-.02.128-.09.191-.133.062-.043.09-.059.207-.117.113-.055.14-.07.219-.098.078-.023.199-.066.234-.078.031-.008.16-.031.242-.05.078-.016.114-.016.243-.028.124-.004.16-.008.242-.004.078.004.203.016.238.016.035.004.156.027.234.043.082.015.114.027.23.066.118.04.157.05.227.082.075.035.184.086.22.106.034.02.14.085.21.125.066.043.102.07.195.148.098.078.13.102.188.164l.18.18.16.203c.054.066.082.11.152.219.066.109.094.152.133.238.043.082.09.203.098.23l.007.028s-.015-.055-.035-.184c-.023-.129-.031-.187-.055-.277a4 4 0 0 0-.082-.274 2.29 2.29 0 0 0-.262-.496c-.07-.105-.105-.16-.167-.226a6 6 0 0 0-.196-.207c-.046-.047-.14-.125-.214-.188-.07-.058-.13-.094-.23-.164-.106-.062-.165-.102-.25-.14-.09-.04-.2-.094-.266-.118a6 6 0 0 0-.278-.09c-.094-.027-.168-.039-.289-.058a1.5 1.5 0 0 0-.3-.035 4 4 0 0 0-.305-.004 6 6 0 0 0-.313.027c-.101.012-.18.031-.305.063-.128.03-.207.05-.3.09-.098.038-.215.085-.285.12-.07.036-.18.094-.27.145s-.152.098-.25.172a2.7 2.7 0 0 0-.445.414 5 5 0 0 0-.188.234 2 2 0 0 0-.168.254 2 2 0 0 0-.14.27c-.043.094-.09.207-.118.281-.027.078-.058.2-.086.297-.027.102-.039.184-.058.309s-.027.207-.031.312c0 .106 0 .234.004.32.007.086.023.215.035.325.011.109.039.195.078.32s.062.207.11.305c.046.097.1.21.14.289.039.07.11.175.164.265.058.086.11.153.191.246.082.094.137.157.211.227.074.066.168.148.23.2.063.05.165.12.247.179a2.703 2.703 0 0 0 .54.277c.093.035.21.078.284.102.078.023.2.047.297.07.098.02.18.027.305.04.125.01.203.015.304.01.106-.003.235-.007.313-.019.078-.008.207-.035.308-.054.106-.02.18-.043.305-.082.125-.043.2-.067.29-.114.093-.047.206-.101.273-.14.062-.035.168-.11.25-.164s.136-.102.23-.184c.09-.086.145-.133.207-.203.066-.074.145-.172.188-.227.043-.054.105-.156.16-.238.05-.078.082-.14.132-.25a2 2 0 0 0 .114-.262c.027-.09.066-.21.082-.273.015-.063.035-.188.05-.277.016-.094.02-.16.024-.286 0-.125.004-.187-.008-.28a5 5 0 0 0-.043-.286 2 2 0 0 0-.078-.246c-.031-.09-.058-.059-.062-.086M115.574 75.898v.098l.004-.02v-.054l-.004-.008Zm0 0" style="stroke:none;fill-rule:nonzero;fill:#d8d8d8;fill-opacity:1"/><path d="M114.492 74.797h-.066c-.32.027-.582.148-.793.371-.028.02-.082.098-.172.234-.031.059-.063.118-.086.184q-.07.165-.086.434.03.454.383.816.156.152.367.238.183.093.512.098a1.15 1.15 0 0 0 .707-.285 1 1 0 0 0 .344-.75l-.008-.106q-.006-.01-.035-.027-.147.598-.715.758a.86.86 0 0 1-.489-.032.8.8 0 0 1-.328-.242.78.78 0 0 1-.164-.515c-.004-.02-.004-.032-.008-.035a.7.7 0 0 1 .024-.211.7.7 0 0 1 .101-.215.5.5 0 0 1 .106-.13.74.74 0 0 1 .293-.179c.223-.086.465-.062.719.063a.98.98 0 0 1 .476.632c.02-.273-.07-.53-.27-.761q-.356-.352-.812-.34M176.79 152.563h-.052c-.37.007-.715.152-1.02.433q-.426.458-.41 1.02.009.186.087.402.053.134.125.227c.007.007.023.015.05.011q-.104-.344-.004-.742.13-.41.426-.621c.262-.16.485-.23.68-.207q.406.025.676.297.358.398.336.832c0 .137-.043.285-.13.453a1.3 1.3 0 0 1-.257.305 1.15 1.15 0 0 1-.899.234 1.3 1.3 0 0 1-.484-.18 1.2 1.2 0 0 1-.324-.285c.113.254.265.446.465.578q.26.201.742.227.55.007 1.02-.414.428-.434.453-1.055c.015-.172-.028-.394-.125-.676a1.4 1.4 0 0 0-.262-.367 1.6 1.6 0 0 0-.477-.332q-.211-.117-.617-.14m0 0" style="stroke:none;fill-rule:nonzero;fill:#d8d8d8;fill-opacity:1"/><path d="M175.559 154.684c.007.015.02.035.03.054q-.021-.042-.03-.054M151.371 149.52q-4.425-.025-8.527 1.96-7.125 3.488-10.067 11.188c-.214.66-.398 1.312-.554 1.965q.888-2.38 2.257-4.313 2.595-3.316 3.356-3.726a20 20 0 0 1 2.754-1.969c.457-.41 2.043-1.102 4.765-2.062a18.8 18.8 0 0 1 5.293-.727q2.451.013 4.997.64 3.686.974 6.464 2.942.832.35 3.73 3.355a20 20 0 0 1 1.966 2.754q1.781 2.995 2.437 6.371c.508 2.36.488 4.989-.07 7.883l-.242.871q.117-.291.234-.59l.73-2.597q.563-2.695.399-5.313l-.328-2.57a19.8 19.8 0 0 0-1.613-4.844c-2.32-4.75-6.051-8.105-11.184-10.066-2.324-.758-4.59-1.145-6.797-1.152m0 0" style="stroke:none;fill-rule:nonzero;fill:#d8d8d8;fill-opacity:1"/><path d="M173.867 163.027c-.054 0-.11 0-.16.004q-1.775.118-3.004 1.145l-.004.004a4.74 4.74 0 0 0-.43.406q-.39.41-.664.875.111.338.215.684.18-.25.754-.829.14-.123.285-.234 1.185-.907 2.848-1.02.077-.004.16-.003.844.004 1.582.23.224.019 1.137.512a4.96 4.96 0 0 1 1.715 1.8q.428.931.433 1.165.065.276.102.57l.012-.086.015-.648c-.086-1.211-.515-2.22-1.297-3.036q-.058.028-.109.055c.035-.02.07-.035.11-.055q-.145-.147-.301-.289-1.401-1.237-3.399-1.25M124.46 152.957q-3.225-.018-5.831 1.617c-1.656 1.04-2.852 2.406-3.578 4.102q-.394.921-.606 1.965a9 9 0 0 0-.09.707 8.8 8.8 0 0 1 1.387-2.676 8.6 8.6 0 0 1 1.121-1.211q.241-.344 2.14-1.473c1.54-.797 3.227-1.187 5.067-1.18.64.005 1.305.055 1.989.16.648.126 1.27.294 1.855.493 1.418.574 2.227.96 2.434 1.168q1.48.944 2.582 2.34.513.651.898 1.344.153.272.281.554.183-.276.371-.547.187-.236.368-.46a9.4 9.4 0 0 0-1.528-2.743q-2.476-3.139-6.875-4.004-1.019-.15-1.984-.156M73.563 172.266c-.95 1.156-1.438 2.46-1.47 3.922q-.046 2.535 1.774 4.527.293.303.61.558a6.5 6.5 0 0 1-1.02-1.875 6 6 0 0 1-.258-1.046q-.1-.26-.035-1.657.194-1.857 1.43-3.367c.152-.18.312-.36.484-.531a7 7 0 0 1 1.879-1.25 5.7 5.7 0 0 1 1.02-.348q1.33-.24 1.628-.176 1.382.104 1.622.239.519.146 1.007.386.652.323 1.25.809l-.457-.547c-1.28-1.265-2.765-1.918-4.457-1.95-1.687-.034-3.199.56-4.527 1.774a8 8 0 0 0-.48.532M87.117 162.75a11.3 11.3 0 0 0-1.547 1.648q-2.642 3.458-1.593 7.38.186.608.464 1.152a8 8 0 0 1 .192-3.328q.222-.826.62-1.63.095-.42 1.532-2.277.538-.621 1.153-1.156 1.635-1.407 3.82-2.2.517-.186 1.062-.339c1.168-.27 2.262-.379 3.293-.332q.75.036 1.457.184 1.689.455 1.989.68.79.438 1.21.714.358.236.446.356c.12.105.242.21.355.324q.198-.164.461-.363a7 7 0 0 0-.715-.95 7.5 7.5 0 0 0-2.3-1.734q-2.943-1.468-6.778-.688c-.367.09-.722.196-1.07.309q-2.34.774-4.05 2.25m0 0" style="stroke:none;fill-rule:nonzero;fill:#d8d8d8;fill-opacity:1"/><path d="M106.793 160.328q-2.643-.017-4.676 1.57-2.36 1.833-2.828 4.985-.059.487-.059.969c.204-.86.524-1.633.957-2.329.227-.359.481-.695.77-1.007.11-.192.606-.61 1.488-1.266 1.227-.8 2.61-1.195 4.14-1.187q.419 0 .849.046a8.2 8.2 0 0 1 2.539.79 7 7 0 0 1 1.074.675c.808.696 1.262 1.149 1.371 1.363q.931 1.344.988 1.66c.164.387.297.794.39 1.208q.193.837.192 1.746l.16-.828q.311-3.166-1.523-5.524-1.84-2.355-4.984-2.828a9 9 0 0 0-.848-.043M197.598 163.367q-1.11.019-2.211.266-4.176.943-5.867 4.57-.24.574-.375 1.164a8 8 0 0 1 2.246-2.394c.46-.325.96-.602 1.504-.84.218-.172 1.085-.422 2.593-.754a11 11 0 0 1 1.598-.14q2.127-.036 4.277.75c.34.12.68.261 1.02.413q1.576.803 2.695 1.832.545.497.984 1.059c.657.941 1.016 1.527 1.075 1.77.215.55.367.988.46 1.304q.125.404.114.551.04.232.062.465.251.004.579.02.075-.587.062-1.169a7.5 7.5 0 0 0-.644-2.761q-1.296-2.97-4.688-4.805-.499-.242-1.004-.441-2.255-.896-4.48-.86m0 0" style="stroke:none;fill-rule:nonzero;fill:#d8d8d8;fill-opacity:1"/><path d="M213.992 173.965c-1.32-1.121-2.828-1.707-4.523-1.77q-2.942-.099-5.285 1.98a7 7 0 0 0-.657.7 7.5 7.5 0 0 1 2.192-1.156 7.7 7.7 0 0 1 1.219-.278q.304-.111 1.921-.011 2.155.253 3.883 1.718.31.265.613.57a8.2 8.2 0 0 1 1.418 2.2q.248.581.383 1.191.257 1.548.176 1.895-.147 1.598-.305 1.879a7 7 0 0 1-.464 1.156 7.7 7.7 0 0 1-.961 1.441l.644-.523q2.236-2.196 2.34-5.137.099-2.94-1.98-5.285c-.2-.203-.403-.39-.614-.57M182.68 168.824q-1.976.945-2.918 2.867-1.089 2.227-.301 4.746c.094.258.195.504.312.743a6.3 6.3 0 0 1-.128-2.082c.035-.348.105-.696.203-1.032q.02-.27.652-1.484.938-1.565 2.66-2.39c.207-.098.422-.192.649-.274a6.9 6.9 0 0 1 2.18-.332q.531.013 1.046.113c.852.227 1.36.399 1.516.52q1.182.667 1.34.879.396.345.73.761c.297.368.559.778.777 1.23l-.18-.675q-.919-2.471-3.144-3.566-2.226-1.091-4.746-.301a9 9 0 0 0-.648.277M98.402 185.563q-1.659 1.014-2.316 2.796-.762 2.063.164 4.22.155.328.344.628a5.6 5.6 0 0 1-.305-1.828c0-.313.031-.621.086-.934q-.005-.235.441-1.367.685-1.466 2.133-2.351.262-.16.547-.301a6 6 0 0 1 1.899-.488q.47-.043.933.003 1.16.181 1.387.32 1.102.481 1.262.657a5.5 5.5 0 0 1 .714.602q.446.45.797 1.02l-.218-.58q-1.039-2.103-3.102-2.866t-4.219.168a6 6 0 0 0-.547.3M112.227 181.613a10 10 0 0 0-1.739.91c-2.097 1.391-3.23 3.254-3.406 5.602q-.02.546.055 1.074a7 7 0 0 1 1.101-2.672q.422-.617.977-1.164c.129-.207.765-.687 1.902-1.43q.616-.358 1.274-.617 1.741-.696 3.757-.718.478-.006.97.023 1.546.166 2.796.664c.398.16.781.352 1.14.567q1.256.853 1.438 1.12.523.586.79.93.229.3.265.418.106.181.195.368.21-.076.485-.168a6.5 6.5 0 0 0-.317-.98 6.5 6.5 0 0 0-1.394-2.075q-1.994-2.046-5.364-2.492a12 12 0 0 0-.965-.051c-1.425-.024-2.746.21-3.96.691m0 0" style="stroke:none;fill-rule:nonzero;fill:#d8d8d8;fill-opacity:1"/><path d="M129.05 185.223q-2.16-.766-4.28-.043-2.455.837-3.739 3.28-.19.389-.32.782a6.6 6.6 0 0 1 1.445-1.637c.285-.23.594-.433.918-.609.145-.121.668-.328 1.578-.613 1.239-.309 2.48-.238 3.739.203q.34.123.68.281a7.1 7.1 0 0 1 1.859 1.371q.382.398.687.86.692 1.195.738 1.504.377 1.37.336 1.644.036.55-.023 1.102a7 7 0 0 1-.34 1.488l.367-.633c.77-1.676.88-3.328.32-4.965-.554-1.636-1.652-2.883-3.28-3.738a9 9 0 0 0-.684-.277M163.5 190.547c-.992.633-1.684 1.492-2.062 2.582-.438 1.262-.368 2.539.218 3.836q.146.299.32.566a5.2 5.2 0 0 1-.304-1.656 4.5 4.5 0 0 1 .066-.852q-.013-.217.38-1.25.596-1.349 1.898-2.175c.156-.098.324-.196.496-.282a5.5 5.5 0 0 1 1.718-.48q.425-.041.848-.008 1.06.147 1.27.27c.672.277 1.058.472 1.156.574.234.16.457.34.66.539.274.27.524.574.742.914l-.21-.523q-.976-1.898-2.864-2.559-1.895-.658-3.836.219-.26.133-.496.285M176.02 186.73a9 9 0 0 0-1.57.856c-1.887 1.297-2.887 3.016-3.009 5.152a6 6 0 0 0 .067.977 6.4 6.4 0 0 1 .96-2.45c.247-.378.54-.738.868-1.074q.175-.287 1.71-1.332.551-.334 1.15-.586 1.57-.656 3.406-.714.438-.01.882.007 1.413.124 2.555.559c.367.14.719.309 1.047.496.77.504 1.21.84 1.328.996q.484.527.734.836.211.269.247.379.1.159.183.328l.438-.16a6 6 0 0 0-.305-.887 6 6 0 0 0-1.3-1.867q-1.847-1.828-4.919-2.18c-.3-.023-.594-.03-.883-.03q-1.944.004-3.59.694m0 0" style="stroke:none;fill-rule:nonzero;fill:#d8d8d8;fill-opacity:1"/><path d="M191.387 189.742q-1.981-.66-3.899.028-2.221.801-3.347 3.05-.164.352-.282.715a6 6 0 0 1 1.293-1.512c.254-.214.532-.406.825-.57.128-.117.601-.308 1.425-.586q1.68-.45 3.403.125c.207.07.418.153.625.242a6.6 6.6 0 0 1 1.715 1.22q.355.356.64.773c.434.718.664 1.168.695 1.359.243.82.356 1.32.333 1.488.027.332.027.664-.004 1.004a6 6 0 0 1-.286 1.356l.325-.582c.675-1.536.746-3.04.21-4.52q-.802-2.221-3.046-3.348a7 7 0 0 0-.625-.242M136.586 175.656q-1.455.71-2.14 2.133c-.528 1.102-.594 2.274-.196 3.508q.1.287.23.55a4.7 4.7 0 0 1-.105-1.538q.039-.386.148-.766c.008-.133.165-.496.473-1.098q.684-1.16 1.953-1.78a6 6 0 0 1 .477-.204 5 5 0 0 1 1.613-.258c.258.004.52.027.774.078q.943.24 1.12.375.88.487.997.645c.195.168.379.351.543.554q.331.41.582.91l-.14-.5q-.688-1.823-2.34-2.62-1.652-.792-3.509-.196a7 7 0 0 0-.48.207M148.36 173.48a7.8 7.8 0 0 0-1.516.618q-2.773 1.477-3.266 4.367c-.039.305-.055.601-.039.898a5.8 5.8 0 0 1 1.125-2.129q.397-.478.899-.886.187-.245 1.69-1.036.539-.246 1.106-.41 1.495-.438 3.172-.297.398.029.801.098a8.7 8.7 0 0 1 2.262.77c.32.168.62.351.898.558q.978.81 1.106 1.043.387.528.582.836.166.263.183.367.078.158.137.32c.117-.03.258-.066.41-.1a5 5 0 0 0-.18-.84 5.5 5.5 0 0 0-.992-1.829q-1.493-1.849-4.246-2.492c-.27-.047-.535-.09-.797-.117q-1.77-.195-3.336.261m0 0" style="stroke:none;fill-rule:nonzero;fill:#d8d8d8;fill-opacity:1"/><path d="M162.016 177.8c-1.157-.534-2.336-.66-3.547-.37-1.403.332-2.52 1.136-3.356 2.422q-.186.305-.332.62c.39-.503.836-.913 1.332-1.242q.381-.251.809-.433c.125-.09.578-.215 1.355-.383q1.575-.234 3.078.469c.184.082.364.18.543.281.575.375 1.051.8 1.434 1.285q.287.362.504.766.475 1.05.488 1.308c.137.774.188 1.239.149 1.387a5 5 0 0 1-.106.91 5.5 5.5 0 0 1-.398 1.207l.355-.496q1.154-1.986.656-4.09c-.332-1.398-1.14-2.52-2.421-3.355a8 8 0 0 0-.543-.285m0 0" style="stroke:none;fill-rule:nonzero;fill:#d8d8d8;fill-opacity:1"/><path d="m176.938 65.86-.012.09q-.036.63.07 2.386a72 72 0 0 0 .297 3.293q.017.106.027.207c-.156.031-.32.07-.5.113-.617.137-1.336.324-2.152.551q-1.352.398-1.879.613a3 3 0 0 0-.266.114 1 1 0 0 0-.23.164.3.3 0 0 1-.106.039c-.003.004-.011.004-.015.004l.09.007c.508.028 1.394-.004 2.66-.086a93 93 0 0 0 2.648-.234 105 105 0 0 0 .793 3.152q.597 2.064.73 2.575a2 2 0 0 0 .063.187c.004 0 .004-.004.004-.004v.004c.004 0-.012-.133-.055-.39q.03-1.886-.058-3.25a139 139 0 0 0-.149-2.106 10 10 0 0 0-.039-.363q.345-.072.856-.196a88 88 0 0 0 2.43-.605l.44-.117q2.339-.675 2.571-.735c.153-.043.219-.066.188-.066-.008 0-.137.016-.39.059a43 43 0 0 0-2.938.039c-.985.058-1.79.117-2.418.168q-.556.052-.942.109l-.02-.086c-.062-.32-.136-.648-.214-.988a45 45 0 0 0-.555-2.153c-.152-.52-.262-.882-.336-1.097q-.005-.032-.261-.742a4 4 0 0 0-.11-.27.9.9 0 0 0-.183-.266.3.3 0 0 1-.04-.12M197.96 117.918l-.007.066q-.041.456.004 1.739.036.906.102 1.765.04.563.05.645c.004.05.012.097.016.148-.113.02-.234.047-.367.07q-.68.136-1.578.364c-.664.176-1.121.312-1.383.41a3 3 0 0 0-.195.078.7.7 0 0 0-.172.113.2.2 0 0 1-.075.028h-.015l.066.011q.555.042 1.942-.011.686-.03 1.789-.114.072 0 .144-.007.228 1.084.418 1.894c.031.14.067.278.098.418q.398 1.517.484 1.887.04.14.043.14h.004s-.008-.093-.035-.285c.039-.914.047-1.707.02-2.37a66 66 0 0 0-.067-1.54c-.008-.086-.012-.176-.02-.262q.255-.047.626-.125.914-.19 1.78-.394l.325-.078q1.721-.447 1.89-.485.171-.044.137-.043-.005-.004-.285.032a32 32 0 0 0-2.14-.028q-1.08.037-1.766.079-.41.023-.691.058l-.012-.062q-.06-.353-.137-.723a31 31 0 0 0-.363-1.578 20 20 0 0 0-.223-.809q0-.024-.176-.547-.044-.123-.078-.199a.6.6 0 0 0-.125-.195.3.3 0 0 1-.027-.09M131.797 70.02l-.008.085q-.04.632.066 2.383c.06.832.125 1.637.204 2.422q.076.768.093.88c.012.065.02.136.032.202h-.004c-.157.031-.32.07-.5.113-.618.137-1.332.325-2.153.551q-1.352.398-1.879.614a3 3 0 0 0-.265.113 1 1 0 0 0-.23.164.3.3 0 0 1-.106.039q-.008.005-.016.004l.09.008q.768.039 2.66-.086a92 92 0 0 0 2.45-.215q.099-.01.199-.02a105 105 0 0 0 .793 3.153c.398 1.375.64 2.234.734 2.57q.052.192.063.191v-.004.004a4 4 0 0 0-.055-.394q.03-1.881-.059-3.246-.076-1.248-.148-2.11l-.035-.359a100.03 100.03 0 0 0 3.277-.8l.441-.118q2.345-.675 2.575-.734.233-.066.191-.067c-.012 0-.14.02-.394.059a43 43 0 0 0-2.938.039c-.98.059-1.79.117-2.418.168q-.556.051-.941.11-.013-.052-.02-.087a43.317 43.317 0 0 0-.77-3.137q-.223-.779-.335-1.1-.002-.03-.262-.743a4 4 0 0 0-.11-.27.9.9 0 0 0-.183-.261.4.4 0 0 1-.04-.121M158.59 38.773l-.008.07q-.046.474-.004 1.81.037.944.102 1.835.04.586.05.668.008.082.016.157-.177.033-.383.074a31 31 0 0 0-1.64.37q-1.038.27-1.442.423c-.094.035-.16.058-.203.082a.7.7 0 0 0-.18.117.2.2 0 0 1-.078.027c-.004 0-.007.004-.011.004l.066.008q.58.045 2.02-.008a52 52 0 0 0 1.863-.11q.071-.003.148-.007a76 76 0 0 0 .531 2.406q.407 1.576.497 1.969.039.146.043.145.004.001.003-.004v.004q.006-.001-.035-.301c.043-.95.055-1.77.028-2.461-.02-.633-.04-1.164-.063-1.602-.008-.094-.012-.183-.02-.277q.263-.042.65-.125a89 89 0 0 0 1.855-.406l.335-.078c1.196-.31 1.852-.473 1.97-.5.116-.032.163-.043.144-.047q-.011 0-.297.035-1.271-.06-2.23-.035c-.747.023-1.356.047-1.837.074q-.422.022-.714.062h-.004c-.004-.027-.004-.05-.012-.066a15 15 0 0 0-.14-.754 30 30 0 0 0-.372-1.645c-.101-.398-.18-.675-.23-.84 0-.015-.063-.202-.18-.57q-.047-.128-.078-.203a.7.7 0 0 0-.133-.207.3.3 0 0 1-.027-.094M211.016 61.328l-.016.055q-.087.392-.191 1.504a44 44 0 0 0-.137 2.097v.13h-.004c-.102.007-.207.011-.324.023-.403.027-.867.074-1.406.136q-.886.112-1.239.2c-.078.015-.14.03-.176.043a.6.6 0 0 0-.16.082c-.031.007-.054.015-.07.015h-.012l.055.012q.473.1 1.68.207.597.052 1.558.106.06.003.125.007a67 67 0 0 0 .188 2.055q.17 1.353.207 1.688.018.123.02.124.004 0 .003-.003v.004q.005-.002.004-.25.205-1.183.281-2.047c.051-.524.086-.973.114-1.336l.011-.23q.225-.013.555-.036c.54-.047 1.066-.09 1.582-.144l.29-.032q1.534-.194 1.687-.207c.101-.011.14-.02.125-.023-.004 0-.09-.004-.25-.004q-1.05-.18-1.852-.262a97 97 0 0 0-1.531-.133c-.235-.011-.438-.023-.602-.023q-.002-.034-.004-.055-.01-.312-.039-.64a25 25 0 0 0-.238-2.125q0-.024-.094-.493a1 1 0 0 0-.043-.18.5.5 0 0 0-.086-.183.2.2 0 0 1-.011-.082m0 0" style="stroke:none;fill-rule:nonzero;fill:#fff;fill-opacity:1"/><path d="m180.434 84.203.007.004Zm1.218 2.418a.42.42 0 0 1 .207.363l-.453.016q-.016-.012-.039-.023a.3.3 0 0 0-.144-.028h-.008l-.246-.066Zm-5.539.867.008.457Zm-5.043 10.676q-.005.004-.004.008-.001-.004.004-.008m1.008 47.527-.035.032-.004.004v-.004q.017-.016.04-.032m6.512-62.8a.7.7 0 0 0-.485.242c-.082.09-.144.199-.195.308q-.11.24-.191.586c-.004.012-.004.02-.008.028q-.037.175-.074.375c-.067-.25-.176-.508-.336-.68a.8.8 0 0 0-.227-.168.6.6 0 0 0-.258-.059q-.001.002-.007.004c-.286.008-.446.207-.52.336l-.035.07a2 2 0 0 0-.129.438c-.062.383-.082.977-.102 1.527v.032c-.02.492-.035.957-.074 1.297q-.033-.035-.066-.075c-.004-.007-.008-.011-.016-.02l-.008-.007v-.004c-.156-.183-.398-.484-.648-.625l-.004-.004-.02-.008q-.005-.004-.011-.007h-.004l-.024-.012a.75.75 0 0 0-.34-.074h-.015a.78.78 0 0 0-.527.238 1.307 1.307 0 0 0-.277 1.223c.097.285.312.46.429.562.184.164.36.32.484.695a.03.03 0 0 0 .008.02h-.004c.227.719.262 2.187-.25 3.812-.515 1.645-1.578 3.41-2.168 4.098-.258.305-.402.367-.562.445q-.008.004-.016.008h-.004c-.222.11-.469.242-.812.645-.008.004-.008.011-.016.015l-.012.012c-.515.617-1.316 1.922-2.156 3.336-.125-1.059-.34-2.117-.847-3.012-.641-1.113-1.727-1.933-2.54-2.55q-.005-.001-.011-.008-.163-.122-.309-.239c-.898-.691-1.234-1.086-1.254-1.48v-.016c-.008-.257.11-.578.278-1.007l.011-.028c.114-.285.246-.617.305-.937.148-.785-.129-1.434-.363-1.957a.5.5 0 0 0-.239-.243q-.007-.003-.015-.007a.5.5 0 0 0-.196-.04h-.011a.5.5 0 0 0-.403.231q-.006.013-.007.02h-.004q-.153.254-.293.472a3 3 0 0 0-.004-.363c-.055-.664-.399-1.29-.688-1.82a.48.48 0 0 0-.203-.2q-.006-.004-.012-.007a.5.5 0 0 0-.218-.047h-.012a.4.4 0 0 0-.164.035l-.043.02.043-.02a.47.47 0 0 0-.277.289c-.336.937-.688 1.855-2.375 3.117-.383.29-.832.59-1.329.926-.003.004-.011.004-.015.008-.559.379-1.168.785-1.762 1.234-1.305.973-2.61 2.168-3.238 3.656l-.008.02c-1.152 2.77.09 6.336 2.027 8.375.754.789 1.614 1.355 2.528 1.781 1.226.57 2.566.899 3.89 1.176-1.312 1.207-2.613 2.598-3.535 4.988-.52 1.36-.914 3.04-1.293 4.64h-.004q.001.012-.004.02-.07.296-.136.59h-.004l-.774 1.438c-.007.011-.011.023-.02.035-.077.187-.132.316-.152.379q-.003.012-.007.023c-.168.45-.141.875.086 1.29q-.059.181-.13.35c-.03.087-.066.169-.097.25-.004.005-.004.013-.008.02-.601 1.438-1.37 2.184-2.12 2.914l-.013.012c-.382.371-.777.758-1.12 1.223-1.008 1.363-1.555 3.394-1.524 4.324.004.195.035.383.113.543a.72.72 0 0 0 .66.426h.016a1 1 0 0 0 .164-.024c.273-.062.512-.254.664-.422q.006-.004.012-.015a1 1 0 0 0 .062-.074.6.6 0 0 0 .164.105l.024.012h-.004a.9.9 0 0 0 .367.066h.024q.135-.005.28-.039l.005-.004c.488-.12 1.18-.527 1.613-.89l.012-.012c.48-.406.683-.8.808-1.363q.001-.007.008-.02a1 1 0 0 1 .02-.101q.002-.016.004-.032.016-.06.027-.125c.09-.414.289-1.11 1.433-2.773a41 41 0 0 1 1.797-2.399h-.004c.028-.004.055-.004.079-.011a1.6 1.6 0 0 0 1.132-.664q.16-.208.524-1.036c0-.003.004-.003.004-.007q.11-.265.203-.524c.719-.762 1.387-1.379 1.91-1.726.394-.266.676-.352.86-.356h.015a.5.5 0 0 1 .227.043l.003.004c.32.152.579.691.809 1.633.356 1.48.496 3.254.066 4.691-.168.567-.425 1.09-.71 1.668l-.004.004c-.297.602-.625 1.262-.856 2.027a8 8 0 0 0-.242 1.133c-.125.985-.059 2.13.004 3.25v.008c.07 1.211.133 2.406-.004 3.477-.008.062-.016.129-.027.191-.192 1.242-.692 2.313-1.149 3.297l-.004.004c-.3.652-.605 1.293-.742 1.89 0 .008-.004.016-.004.024h-.004c-.14.64-.094 1.207-.054 1.715v.004c.043.527.074.996-.047 1.527 0 .008-.004.012-.004.02-.04.16-.09.328-.164.503-.25.602-.723 1.313-1.223 2.055h-.004c-.004.008-.012.016-.015.027-.45.66-.922 1.36-1.165 1.954-.093.23-.167.476-.183.718-.04.774.539 1.192 1.05 1.43.333.156.715.273 1.051.375q.005.005.016.004a7 7 0 0 1 .824.289c.364.172.578.387.832.645q.006 0 .012.007c.23.235.512.516.941.72a.03.03 0 0 1 .016.007c.086.035.172.07.266.101q.005.005.015.004h-.004c.446.145.985.203 1.461.2q.053.001.106-.004c.422-.012.953-.082 1.265-.32a.72.72 0 0 0 .262-.348c0-.008.004-.016.004-.024a.63.63 0 0 0 .004-.36 1 1 0 0 0-.063-.16c-.16-.3-.578-.624-.914-.894-.004 0-.004-.004-.004-.004h-.003v-.004l-.008-.004c-.696-.558-1.453-1.183-1.711-1.917-.414-1.165.375-2.782 1.387-4.684.648-.059 1.418-.2 2.03-1.012.298-.398.555-.96.786-1.59a1.4 1.4 0 0 0 .082.227c.113.238.27.363.367.437 0 .004.004.004.004.008.082.063.117.094.156.188.028.054.059.144.082.285.133.726.106 2.371.075 4.113h-.004c-.27.594-.582 1.29-.586 2 0 .578.207 1.219 1.004 1.594.285.133.636.223 1.062.273.324.04.695.051 1.086.047q.134-.001.274-.008c1.347-.043 2.957-.285 3.87-.593.458-.153.833-.352 1.028-.645a.76.76 0 0 0 .031-.824c-.144-.258-.41-.438-.668-.57h-.004q-.001-.002-.007-.004-.042-.02-.083-.04l-.003-.003c-.434-.203-1.016-.36-1.52-.496h-.004q-.006-.005-.012-.004c-.414-.114-.777-.215-1.039-.32q-.004.001-.007-.004h.003a1 1 0 0 1-.105-.043h-.004c-.367-.172-.46-.34-.547-.559l.223-3.426c.039 0 .074.004.11 0h.042c.711-.023 1.238-.433 1.438-1.476.09-.461.12-1.075.16-1.79v-.003c.066-1.246.16-2.914.562-5.008.051-.274.11-.55.172-.84.246-1.113.578-2.34.93-3.617q.001-.014.008-.028c.375-1.37.765-2.796 1.07-4.187.379-1.715.637-3.402.57-4.879-.097-2.277-.957-4.008-1.754-5.617v-.004l-.003-.004c-.547-1.105-1.059-2.144-1.336-3.3-.7-2.887.015-6.618.629-8.712.52-1.773.933-2.265 1.34-2.777q.105-.122.21-.262c.524-.68 1.118-1.68 1.254-2.394.121-.64-.12-1.043-.383-1.324h-.004c.602-1.067 1.211-2.204 1.454-3.45.129-.66.156-1.34.18-1.96v-.016c.023-.598.046-1.133.14-1.614.008-.046.02-.093.027-.14q.004-.012.008-.024h-.004.004c.168-.687.516-1.265.84-1.777 0 0 .016-.02.027-.047 0 0 0-.004.004-.004.13-.207.258-.414.356-.605.168-.32.234-.586.285-.785v-.004c.035-.14.054-.219.086-.281l.011-.024c.016-.027.032-.055.06-.078.077-.094.226-.191.444-.336l.004-.004c.192-.129.457-.3.637-.5a1 1 0 0 0 .117-.148.93.93 0 0 0 .156-.504.83.83 0 0 0-.367-.727q-.046-.029-.094-.05h-.003.004a.8.8 0 0 0-.344-.075h-.02c-.05.004-.105.008-.156.024h-.012c-.16.039-.32.125-.469.226.098-.187.2-.394.286-.605s.164-.446.191-.684c.043-.348-.023-.719-.223-.98a.8.8 0 0 0-.277-.23q-.006-.006-.012-.005a.65.65 0 0 0-.293-.066h-.015a.76.76 0 0 0-.422.156q-.059.047-.106.094a1.8 1.8 0 0 0-.265.36q.017-.118.027-.235v-.012q.005-.017.004-.027c.04-.531-.07-1.063-.332-1.363a1 1 0 0 0-.125-.122l-.031-.02a.2.2 0 0 0-.059-.034h-.004a.1.1 0 0 0-.031-.02.65.65 0 0 0-.27-.058zm0 0" style="stroke:none;fill-rule:nonzero;fill:#02001f;fill-opacity:1"/><path d="M178.61 83.344c-.094.004-.196.086-.29.289q-.083.186-.16.5v.004c-.074.328-.14.77-.2 1.199h-.003v.016c-.059.406-.117.8-.184 1.082a3 3 0 0 1-.035.144c-.066.227-.144.34-.222.344q-.012-.002-.024-.004l-.004-.004q-.006.001-.011-.004c-.082-.035-.145-.2-.172-.43-.02-.183-.016-.414-.016-.664v-.007c.008-.29.008-.602-.023-.891v-.004a2 2 0 0 0-.051-.297c-.07-.308-.203-.562-.332-.625a.2.2 0 0 0-.059-.012q-.091-.001-.16.145a1.3 1.3 0 0 0-.09.324c-.058.344-.078.899-.097 1.465v.004c-.02.59-.04 1.187-.11 1.574v.004a1.2 1.2 0 0 1-.094.336c-.046.082-.097.11-.152.113a.24.24 0 0 1-.098-.023c-.148-.07-.324-.281-.503-.496l-.008-.008c-.18-.215-.364-.438-.524-.523q.001-.005-.004-.004l-.023-.012s0-.004-.004-.004a.4.4 0 0 0-.14-.031c-.153.004-.266.117-.34.277a.86.86 0 0 0-.055.586c.05.148.16.25.297.371.203.176.453.399.613.887v.004h.004-.004c.27.824.293 2.406-.242 4.11-.535 1.698-1.625 3.523-2.254 4.257-.313.363-.512.46-.711.559h-.004c-.191.093-.383.187-.684.535v.004l-.023.023c-.621.742-1.707 2.582-2.789 4.422q-.006.005-.012.004h-.008q-.003-.002-.007-.004c-.004 0-.004 0-.008.004-.004 0-.008-.008-.008-.012-.125-1.496-.25-2.996-.914-4.156-.586-1.024-1.594-1.785-2.418-2.414h-.004l-.008-.008q-.165-.121-.316-.242c-.871-.672-1.406-1.192-1.426-1.84-.012-.379.152-.797.316-1.211l.004-.008c.114-.293.23-.586.282-.855.12-.63-.098-1.157-.332-1.684q-.007-.016-.02-.02-.006-.004-.012-.003-.018.002-.03.015c-.298.485-.595.961-.845 1.239-.261.289-.472.363-.683.433q-.005-.001-.004.004s-.004-.004-.008-.004v-.012c.219-.578.438-1.16.39-1.734-.046-.547-.331-1.094-.632-1.637a.03.03 0 0 0-.016-.015q-.005-.002-.015-.004-.006-.001-.012.004a.05.05 0 0 0-.02.02c-.355.991-.75 2-2.527 3.327-.394.297-.855.606-1.348.938-.566.383-1.172.789-1.761 1.23-1.29.965-2.512 2.098-3.09 3.47-1.074 2.554.07 5.944 1.933 7.905.704.743 1.516 1.278 2.391 1.684 1.434.668 3.04.992 4.648 1.316q.007.001.008.008t-.004.008l-.004.004c-1.515 1.36-3.035 2.723-4.062 5.402-.508 1.324-.898 2.969-1.277 4.578v.004q-.08.336-.16.664l-.805 1.493q-.134.314-.145.359c-.144.363-.101.715.125 1.047a.2.2 0 0 0 .028.05c-.067.2-.133.387-.204.57q-.052.135-.105.259v.004c-.64 1.539-1.469 2.343-2.23 3.082-.391.379-.762.742-1.086 1.18-.95 1.288-1.461 3.218-1.434 4.038.008.309.094.453.203.508a.2.2 0 0 0 .113.02c.172 0 .38-.145.52-.301.148-.172.203-.352.258-.524v-.003h.004a1.5 1.5 0 0 1 .136-.348l.016.027q.016.025.031.043l.055.055q.131.057.25.055h.027a.3.3 0 0 0 .215-.125.4.4 0 0 0 .07-.23 1 1 0 0 0 0-.138 10 10 0 0 0-.023-.335q.154-.124.29-.25c.1-.09.194-.188.28-.274l.008-.004c.063-.066.125-.129.18-.18.07-.062.137-.117.187-.117q.017-.001.028.004c.004 0 .004.004.007.004.106.066.047.52-.125.832-.16.297-.43.477-.675.64l-.004.005h-.004s0 .004-.004.004c-.012.007-.031.023-.043.027-.262.18-.492.348-.527.516-.02.093.015.183.12.234h.005q.071.035.183.035c.059 0 .125-.012.203-.027.403-.102 1.043-.473 1.446-.813.398-.34.554-.644.664-1.133l.023-.117q.014-.065.028-.137c.109-.492.335-1.242 1.503-2.937a41 41 0 0 1 1.946-2.582h.043q.099-.001.191-.02.528-.064.832-.484.124-.158.477-.95.125-.297.226-.589c.746-.8 1.465-1.477 2.051-1.863.445-.297.816-.426 1.125-.434.152 0 .297.031.422.09h.004c.547.258.84 1.043 1.058 1.941.368 1.516.524 3.38.063 4.93-.184.606-.461 1.164-.742 1.738-.305.61-.614 1.235-.828 1.957q-.155.496-.227 1.063c-.121.933-.059 2.031.004 3.168v.004c.07 1.203.137 2.445-.004 3.562q-.016.1-.031.2c-.203 1.316-.73 2.445-1.188 3.421v.004c-.312.664-.59 1.258-.715 1.801-.132.574-.09 1.086-.05 1.602v.004c.039.523.082 1.058-.059 1.664a4 4 0 0 1-.191.593c-.27.657-.774 1.407-1.266 2.137v.004l-.008.004c-.46.683-.906 1.347-1.129 1.89-.086.211-.14.403-.148.567-.027.484.312.777.785 1 .297.137.649.246.992.351h.004c.313.098.621.192.871.309.008.004.016.004.024.008.441.207.707.476.965.73v.004c.238.238.468.469.82.637h.004q.104.047.226.09h.004c.383.129.875.183 1.324.18.579-.008 1.125-.122 1.204-.364l.003-.004a.2.2 0 0 0 0-.113c-.058-.207-.394-.477-.824-.82v-.004h-.004l-.007-.008c-.672-.535-1.547-1.242-1.856-2.121-.512-1.442.5-3.344 1.516-5.246l.007-.016c.004-.004.004-.004.008-.004h.004c.696-.058 1.387-.117 1.942-.855.558-.742.976-2.168 1.394-3.598q.001-.007.008-.008.007.001.008.008c.027.953.054 1.902.23 2.297a.7.7 0 0 0 .246.297l.004.004a.9.9 0 0 1 .29.355c.042.102.081.227.109.39.148.798.113 2.544.078 4.29v.012c-.29.632-.582 1.265-.586 1.894 0 .453.148.903.742 1.18q.343.166.922.238c.3.035.652.047 1.027.043 1.367-.02 3.094-.27 4.008-.578.707-.238.922-.504.84-.75-.055-.16-.242-.316-.516-.457h-.004l-.07-.035h-.004c-.39-.184-.93-.332-1.449-.473h-.004a12 12 0 0 1-1.101-.34q-.07-.03-.13-.058h-.003c-.575-.27-.696-.582-.817-.899v-.004l.262-3.976v-.008h.02c.171.02.343.043.507.04.473-.005.868-.212 1.04-1.11.081-.422.113-1 .152-1.727.07-1.25.16-2.945.57-5.074.05-.277.11-.559.172-.852.25-1.132.594-2.379.941-3.664h.004c.375-1.375.762-2.789 1.067-4.168.375-1.703.62-3.343.558-4.761-.094-2.172-.91-3.825-1.71-5.442v-.004c-.544-1.097-1.079-2.18-1.376-3.394-.726-3.008.02-6.832.64-8.946.54-1.835.977-2.382 1.423-2.933.066-.082.137-.164.203-.254.516-.668 1.05-1.598 1.164-2.2.117-.6-.191-.874-.5-1.152-.004 0-.004-.007 0-.007.66-1.172 1.32-2.34 1.57-3.618.121-.62.149-1.265.172-1.898v-.012c.024-.59.047-1.16.149-1.68q.016-.094.039-.183c.191-.793.597-1.441.925-1.961v-.004c.133-.21.254-.398.34-.57.14-.274.196-.496.246-.692.04-.148.07-.273.133-.394a.8.8 0 0 1 .125-.184c.13-.144.332-.277.535-.414h.004c.207-.14.418-.277.551-.426a.5.5 0 0 0 .07-.09c.153-.234.09-.492-.078-.601q-.016-.012-.039-.023a.3.3 0 0 0-.144-.028q-.042.001-.082.008c-.211.047-.473.27-.707.473l-.008.004-.004.004a2.4 2.4 0 0 1-.387.292.3.3 0 0 1-.129.04c-.023 0-.043 0-.058-.008-.118-.059-.11-.305.03-.645.063-.152.15-.324.243-.508h.004c.102-.207.215-.425.305-.644.078-.192.136-.383.156-.563.047-.363-.07-.668-.246-.754v.004q-.002-.005-.004-.004a.2.2 0 0 0-.098-.02c-.07 0-.148.036-.226.114-.203.203-.418.695-.61 1.14l-.004.005v.004c-.125.285-.242.55-.34.707q-.112.175-.206.175-.017.002-.04-.007c-.109-.051-.152-.305-.125-.61.024-.234.086-.508.149-.785v-.004c.07-.289.14-.59.164-.863q.005-.02.004-.031c.043-.54-.106-.965-.285-1.09q-.005-.002-.004-.004-.017-.008-.028-.016-.004.001-.003-.004a.2.2 0 0 0-.075-.015m0 0" style="stroke:none;fill-rule:nonzero;fill:#fff;fill-opacity:1"/><path d="M162.414 108.938c-.312.152-.836.562-1.309 1.003q-.703.657-1.261 1.383c-.367.485-.692.985-.867 1.313a5 5 0 0 0-.301.633 12 12 0 0 0-.457 1.503c-.137.532-.32 1.266-.473 1.891q-.228.936-.375 1.531c-.101.395-.176.676-.219.82-.043.141-.07.227-.105.313a3.5 3.5 0 0 1-.274.629c-.09.16-.218.379-.32.566q-.151.28-.226.461a1.1 1.1 0 0 0-.082.305c-.004.094 0 .207.023.309a.56.56 0 0 0 .14.254c.07.066.157.113.223.148.067.04.067.04.024.012 0 0-.086-.055-.14-.125a.5.5 0 0 1-.102-.227.6.6 0 0 1 .011-.265.8.8 0 0 1 .07-.223c.036-.074.106-.188.204-.332.097-.149.23-.328.386-.543a3 3 0 0 0 .274-.43q.074-.147.144-.289c.043-.09.082-.183.118-.27.035-.09.113-.296.218-.62.106-.32.239-.754.39-1.301.157-.543.325-1.207.517-1.985.19-.773.253-.996.316-1.203q.1-.314.187-.566c.063-.164.118-.313.168-.43a13.071 13.071 0 0 1 1.637-2.555c.387-.476.817-.945 1.016-1.21.46-.485.187-.286.445-.5M153.258 126.625c-.176.094-.469.344-.727.617a6.3 6.3 0 0 0-.687.875 5.4 5.4 0 0 0-.496.946c-.121.312-.2.582-.262.843a6 6 0 0 0-.137.742c-.031.239-.043.461-.039.61.004.144.016.21.04.27a.26.26 0 0 0 .1.136.23.23 0 0 0 .153.043.3.3 0 0 0 .149-.059.5.5 0 0 0 .125-.132c.035-.055.07-.121.097-.172.031-.051.031-.051.008-.016 0 0-.047.063-.098.11a1 1 0 0 1-.136.109.25.25 0 0 1-.114.039q-.047.007-.078-.016a.1.1 0 0 1-.047-.058.4.4 0 0 1-.02-.125c0-.055.024-.262.06-.477a8 8 0 0 1 .16-.68q.1-.363.242-.75c.094-.261.23-.582.387-.894q.23-.474.542-.914c.204-.297.434-.586.54-.746.246-.293.093-.172.238-.301M164.953 119.734c.047.235.195.641.324 1.012q.201.558.332 1.004c.086.3.153.566.203.836.055.266.106.566.149.883q.06.48.078 1.011c.012.356.012.73 0 1.02a7 7 0 0 1-.05.645 5 5 0 0 1-.094.492c-.036.152-.083.297-.48 1.195-.403.895-1.161 2.563-1.255 2.813a12 12 0 0 0-.426 1.3q-.069.281-.101.52a6.5 6.5 0 0 0-.07 1.023c0 .184.003.38.128 1.82.125 1.446.137 1.57.149 1.704l.023.39c.004.13.012.262.012.395a6 6 0 0 1 0 .601c-.008.23-.023.457-.055.676-.027.219-.066.434-.09.594-.027.164-.027.164.008.059 0 0 .117-.192.188-.403.07-.215.12-.437.16-.672.039-.23.062-.472.074-.664.012-.191.016-.324.02-.457q.006-.204 0-.402c0-.137-.004-.27-.063-1.059-.054-.789-.176-2.23-.18-2.406a7 7 0 0 1 .047-.996c.016-.152.04-.297.075-.461a10 10 0 0 1 .359-1.187c.086-.23.18-.473.937-2.137.758-1.668.817-1.832.86-1.992.047-.164.086-.332.117-.516.031-.18.05-.367.066-.566.016-.196.028-.59.024-.97q-.004-.566-.055-1.081a8.785 8.785 0 0 0-.363-1.809 10 10 0 0 0-.36-.937c-.148-.34-.328-.711-.457-.89-.222-.392-.14-.177-.234-.388M161.563 146.52c-.012.058-.032.187-.067.335a4 4 0 0 1-.16.5c-.07.192-.16.399-.234.555a5 5 0 0 1-.176.336c-.051.09-.11.184-.168.281a7 7 0 0 1-.313.442c-.18.246-.445.597-.648.886-.2.29-.348.504-.445.653a2 2 0 0 0-.18.316 4 4 0 0 0-.14.344q-.067.206-.09.398a1.5 1.5 0 0 0 .003.375q.03.18.094.313c.047.09.102.176.172.246.066.07.148.129.398.2.25.07.582.136.86.198.273.067.5.13.668.192s.277.12.36.172c.081.054.16.105.26.191.102.086.227.211.376.363.148.153.324.336.441.454.117.12.16.144.203.167q.064.035.133.051c.047.012.094.02.13.028.038.011.038.011.01.004 0 0-.042-.012-.085-.036a1 1 0 0 1-.117-.078.5.5 0 0 1-.09-.086c-.031-.03-.184-.261-.328-.457a7 7 0 0 0-.39-.484 2 2 0 0 0-.298-.277c-.078-.059-.164-.133-.32-.22a4 4 0 0 0-.602-.241 10 10 0 0 0-.894-.235c-.348-.074-.36-.09-.406-.129a.5.5 0 0 1-.114-.132.8.8 0 0 1-.078-.18 1.2 1.2 0 0 1-.023-.258q.005-.146.05-.309c.028-.109.07-.222.13-.347.058-.121.062-.149.113-.23q.077-.13.324-.489c.164-.238.383-.55.644-.937.266-.391.332-.5.395-.606q.09-.158.168-.312.076-.152.14-.297c.04-.102.126-.34.192-.555q.099-.328.133-.586c.023-.176.023-.328.008-.394-.024-.13-.032-.067-.04-.125M168.316 142.195c-.043.059-.09.188-.12.317q-.047.195-.06.383a2.3 2.3 0 0 0 .044.539c.011.05.027.109.043.168.02.058.039.12.172.488.132.367.382 1.031.402 1.097q.023.102.05.215.019.117.044.239.022.124.039.254l.035.261q.018.139.031.278l.02.222q.006.058.007.11.007.053.008.101c.004.035.004.067.02.348q.02.417.043.687.017.263.027.38l.02.167c.007.074.023.149.035.23.015.079.035.16.058.223.024.059.024.059.02.02 0 0 .023-.09.023-.172q.005-.123.004-.234c.004-.075.004-.149.008-.184 0-.039 0-.129.008-.273l.02-.586c.003-.246.011-.543.011-.578v-.216c0-.038 0-.077-.004-.171l-.012-.29-.023-.277a6 6 0 0 0-.027-.27 3 3 0 0 0-.106-.51c-.023-.079-.054-.169-.344-.821-.289-.653-.312-.707-.335-.762a2 2 0 0 1-.059-.156c-.02-.05-.031-.098-.043-.14a2 2 0 0 1-.055-.274 2 2 0 0 1-.02-.356c.005-.125.016-.25.012-.32.016-.133-.015-.07.004-.137M168.828 149.984c-.129.2-.27.594-.332.938q-.1.522.027.902c.086.254.254.45.422.567.164.113.313.195.47.257q.243.096.523.137c.187.031.382.05.539.055.152.004.296-.004.484-.031q.286-.037.719-.133c.285-.067.62-.16.898-.238.274-.079.274-.079.086-.04 0 0-.383.024-.707.059q-.49.053-.816.082a4 4 0 0 1-.493.016 7 7 0 0 1-.476-.055 3 3 0 0 1-.484-.125 3 3 0 0 1-.407-.172c-.12-.066-.297-.172-.402-.316-.11-.149-.168-.356-.18-.637-.008-.281.04-.633.051-.836.094-.426.004-.21.078-.43M161.438 90.773c-.102.07-.274.235-.446.399q-.262.252-.543.504c-.187.168-.387.336-.554.48-.172.14-.364.293-.63.496-.265.2-.613.453-1.027.766-.418.312-.91.676-1.246.926s-.453.351-.566.449q-.169.153-.332.305a8.836 8.836 0 0 0-1.059 1.238 8 8 0 0 0-.605 1.008c-.176.347-.325.71-.45 1.07a4.6 4.6 0 0 0-.234 1.156q-.04.621.078 1.336c.078.477.211.98.363 1.442.149.457.325.843.551 1.222.23.375.512.743.848 1.094s.726.688 1.047.93c.32.238.32.238.12.062 0 0-.355-.398-.679-.773a9 9 0 0 1-.832-1.11 6 6 0 0 1-.547-1.105c-.136-.371-.3-.883-.406-1.36a6.2 6.2 0 0 1-.18-1.316 3.8 3.8 0 0 1 .13-1.11c.093-.335.218-.695.366-1.034q.23-.516.528-.985.3-.473.676-.906a7.542 7.542 0 0 1 .758-.785c.105-.098.218-.195.328-.285.113-.098.656-.492 1.125-.84.468-.344.863-.64 1.171-.89q.47-.381.711-.602c.16-.149.356-.332.536-.52q.275-.274.515-.562c.16-.192.309-.383.363-.493.13-.195.047-.113.121-.207M176.262 89.863c-.067.282-.145.84-.258 1.403a13 13 0 0 1-.484 1.71 16 16 0 0 1-.692 1.641c-.234.477-.406.809-.566 1.11q-.244.445-.453.793c-.137.23-.266.421-.575.789-.308.367-.773.898-1.164 1.359-.386.46-.707.852-.945 1.172a9 9 0 0 0-.55.824c-.141.25-.305.543-.458.844q-.223.446-.406.91c-.125.312-.223.629-.297.867-.07.238-.07.238-.012.082 0 0 .16-.289.317-.578a37 37 0 0 1 .476-.867q.246-.422.516-.844c.184-.277.3-.469.492-.73.195-.258.457-.598.793-1.004q.505-.614 1.238-1.446c.489-.554.621-.746.758-.96q.201-.321.438-.743.234-.418.504-.945c.175-.348.468-.953.707-1.555a9.6 9.6 0 0 0 .523-1.797c.113-.59.168-1.171.137-1.46-.028-.575-.043-.293-.04-.575M164.895 222.195c1.128.043 1.988.29 2.566.746q.984.78.984 2.239c0 .52-.086.972-.25 1.36a2.9 2.9 0 0 1-.777 1.026 3.6 3.6 0 0 1-1.258.711q-.732.228-1.758.227h-2.125v-6.316h2.262q.18 0 .356.007m31.085.348q.23.914.516 1.562l2.477 6.454H193l2.516-6.43q.182-.512.464-1.586m30.633-2.172h-3.367q-.334 0-.469.07a.7.7 0 0 0-.32.297l-5.664 10.313c-.254.52-.43.933-.54 1.246q-.292-.813-.534-1.211l-5.781-10.348a.66.66 0 0 0-.297-.297.9.9 0 0 0-.364-.066c-.035 0-.066-.004-.105-.004h-3.367v1.027q-.002.358.367.426c.148.051.59.145 1.312.274v13.328l-1.312.285q-.368.07-.367.422v1.027h5.586v-1.027q0-.352-.309-.422-.47-.104-1.59-.285v-10.61q0-.468-.058-1.046h.004l5.812 10.445q.263.516.8.535h.364q.527.002.8-.535l5.755-10.477q-.042.375-.043 1.102v10.586c-.551.09-1.07.187-1.567.285q-.351.07-.351.422v1.027h5.605v-1.027q0-.352-.363-.422-.287-.093-1.336-.285v-13.328l1.336-.274q.363-.069.363-.426Zm-77.558 1.867q2.53.095 4.007 1.73c.477.528.872 1.212 1.176 2.06q.423 1.183.422 2.761-.002 3.084-1.597 4.82c-1.063 1.149-2.5 1.727-4.32 1.727h-3.77v-13.102h3.77q.158-.001.312.004m48.093-1.82h-2.296l-6.079 15.156-.933.274q-.31.08-.309.379v.933h4.797v-.933q-.002-.31-.308-.38l-.961-.273 1.316-3.37h7.227l1.312 3.37-.957.274q-.333.07-.332.379v.933h4.82v-.933q.001-.299-.308-.38l-.938-.273Zm-11.113 0H174.02v.98q0 .381.34.446.209.071 1.34.277v13.363l-1.34.25q-.34.07-.34.446v.98h12.015v-3.883h-1.12c-.306 0-.477.13-.513.38q-.001.134-.136 1.679h-6.274v-5.734h6.168v-1.77h-6.168v-5.574h6.274a30 30 0 0 0 .148 1.574q.01.206.008.23.07.381.46.399h1.153Zm-59.379 1.82q2.532.095 4.008 1.73.72.79 1.176 2.06.422 1.183.422 2.761 0 3.084-1.598 4.82-1.59 1.725-4.316 1.727h-3.77v-13.102h3.77q.157-.001.308.004m38.41-1.855a12 12 0 0 0-.527-.012h-6.191v1.027q-.001.345.343.426.205.043 1.36.274v13.328l-1.36.285q-.344.082-.343.422v1.008h5.632v-1.008a.4.4 0 0 0-.117-.274.47.47 0 0 0-.261-.148 65 65 0 0 0-1.301-.285v-5.278h1.496q.059-.001.117.004.4.014.578.133.24.16.422.403l4.356 5.984q.257.469.832.488h2.488v-1.027q0-.34-.352-.422h.024q-.116-.035-1.317-.227l-3.617-4.968a2.3 2.3 0 0 0-.758-.7 6.3 6.3 0 0 0 1.739-.671 4.3 4.3 0 0 0 1.289-1.063q.538-.65.812-1.406a4.8 4.8 0 0 0 .285-1.633q.001-1.073-.355-1.941c-.227-.555-.602-1.047-1.117-1.473q-.77-.627-1.918-.938a10.4 10.4 0 0 0-2.239-.308m-15.882.043a16 16 0 0 0-.442-.008H141v.98q0 .381.363.446.228.082 1.317.277v13.363l-1.317.25q-.363.07-.363.446v.98h7.742q3.704.002 5.961-2.293a8 8 0 0 0 1.68-2.64q.607-1.553.605-3.438 0-3.767-2.285-6.086-2.08-2.149-5.52-2.277m-22.399 0a16 16 0 0 0-.437-.008h-7.746v.98q-.002.381.367.446.228.082 1.312.277v13.363l-1.312.25q-.368.07-.367.446v.98h7.746q3.698.002 5.96-2.293a8.1 8.1 0 0 0 1.68-2.64q.605-1.553.606-3.438 0-3.767-2.285-6.086-2.085-2.149-5.524-2.277m-15.902-.008h-5.61v.98q.001.163.102.29a.4.4 0 0 0 .242.156q.205.048 1.336.254v13.351l-1.336.262a.47.47 0 0 0-.254.16.5.5 0 0 0-.09.285v1.004h11.743v-3.64h-1.157a.5.5 0 0 0-.32.113.45.45 0 0 0-.168.273q-.06.24-.137 1.336h-6.03v-13.144q.033-.001.616-.114.572-.105.707-.14a.43.43 0 0 0 .25-.156.44.44 0 0 0 .106-.29Zm-7.106 0h-5.629v.98q-.001.358.274.426.27.067 1.402.274v13.351l-1.36.262q-.315.07-.316.445v1.004h5.63v-1.004q.001-.351-.274-.422a30 30 0 0 0-1.43-.285v-13.351l1.348-.254q.356-.065.355-.446Zm-7.129 0h-5.652v.98q.002.358.274.426.275.067 1.406.274v5.777h-9.024v-5.777a30 30 0 0 0 1.43-.274q.227-.069.227-.426v-.98h-5.63v.98q-.001.358.274.426.274.067 1.402.274l.004 13.351-1.34.262q-.34.07-.34.445v1.004h5.63v-1.004q0-.365-1.68-.707v-5.918h9.023v5.918l-1.3.262c-.25.055-.38.203-.38.445v1.004h5.657v-1.004q-.001-.351-.277-.422a19 19 0 0 0-1.403-.285v-13.351l1.36-.254q.34-.065.34-.446Zm-23.296-.211c-.09-.004-.18-.004-.262-.004l.043.02c-2.602 0-4.68.797-6.223 2.386q-2.344 2.413-2.344 6.18c0 2.508.739 4.563 2.207 6.168 1.375 1.504 3.172 2.297 5.399 2.379q.193.01.39.008c2.575 0 4.586-.84 6.043-2.524l-.89-.98a.5.5 0 0 0-.348-.137h-.031q-.158 0-.375.18-.814.755-2.055 1.222-.779.275-2.219.274-.137.001-.273-.004c-1.578-.059-2.871-.633-3.871-1.719q-1.68-1.815-1.68-4.867 0-3.002 1.703-4.844 1.678-1.757 4.352-1.757.154 0 .312.007 1.464.053 3.215.61 0 .036.024.172l.035.375q.025.24.043.503c.047.657.078 1.004.094 1.051q.065.41.48.422h1.152v-3.93q-2.982-1.12-4.921-1.191m0 0" style="stroke:none;fill-rule:nonzero;fill:#d8d8d8;fill-opacity:1"/></svg>