<?xml version="1.0" encoding="UTF-8"?>
<svg xmlns="http://www.w3.org/2000/svg" xmlns:xlink="http://www.w3.org/1999/xlink" width="4001" height="4001" viewBox="0 0 4001 4001">
<defs>
<clipPath id="clip-0">
<path clip-rule="nonzero" d="M 500 2317 L 3501 2317 L 3501 2748 L 500 2748 Z M 500 2317 "/>
</clipPath>
<clipPath id="clip-1">
<path clip-rule="nonzero" d="M 1976.878906 2747.46875 C 1889.671875 2747.269531 1804.28125 2746.011719 1721.300781 2743.78125 L 1721.300781 2728.921875 L 1710.679688 2743.480469 C 1641.460938 2741.539062 1573.988281 2738.921875 1508.53125 2735.671875 L 1503.601562 2728.921875 L 1503.601562 2735.421875 C 919.152344 2706.03125 500.5 2626.238281 500.5 2532.390625 C 500.5 2413.410156 1171.648438 2317.28125 2000.578125 2317.28125 C 2828.878906 2317.28125 3500.5 2413.410156 3500.5 2532.390625 C 3500.5 2629.71875 3049.78125 2711.941406 2431.421875 2738.488281 L 2427.640625 2730.070312 L 2423.71875 2738.820312 C 2319.550781 2743.199219 2210.570312 2746.011719 2098.339844 2747.039062 C 2085.699219 2738.269531 2071.089844 2734.480469 2054.738281 2734.480469 L 1976.878906 2734.480469 L 1976.878906 2747.46875 "/>
</clipPath>
<clipPath id="clip-2">
<path clip-rule="nonzero" d="M 1976.878906 2747.46875 C 1889.671875 2747.269531 1804.28125 2746.011719 1721.300781 2743.78125 L 1721.300781 2728.921875 L 1710.679688 2743.480469 C 1641.460938 2741.539062 1573.988281 2738.921875 1508.53125 2735.671875 L 1503.601562 2728.921875 L 1503.601562 2735.421875 C 919.152344 2706.03125 500.5 2626.238281 500.5 2532.390625 C 500.5 2413.410156 1171.648438 2317.28125 2000.578125 2317.28125 C 2828.878906 2317.28125 3500.5 2413.410156 3500.5 2532.390625 C 3500.5 2629.71875 3049.78125 2711.941406 2431.421875 2738.488281 L 2427.640625 2730.070312 L 2423.71875 2738.820312 C 2319.550781 2743.199219 2210.570312 2746.011719 2098.339844 2747.039062 C 2085.699219 2738.269531 2071.089844 2734.480469 2054.738281 2734.480469 L 1976.878906 2734.480469 L 1976.878906 2747.46875 "/>
</clipPath>
<radialGradient id="radial-pattern-0" gradientUnits="userSpaceOnUse" cx="0" cy="0" fx="0" fy="0" r="857.4415" gradientTransform="matrix(1.749087, 0, 0, 0.250913, 2000.5, 2532.39)">
<stop offset="0" stop-color="rgb(56.336975%, 52.746582%, 53.17688%)" stop-opacity="1"/>
<stop offset="0.00390625" stop-color="rgb(56.607056%, 53.02887%, 53.408813%)" stop-opacity="1"/>
<stop offset="0.0078125" stop-color="rgb(56.878662%, 53.312683%, 53.642273%)" stop-opacity="1"/>
<stop offset="0.0117188" stop-color="rgb(57.151794%, 53.598022%, 53.878784%)" stop-opacity="1"/>
<stop offset="0.015625" stop-color="rgb(57.426453%, 53.886414%, 54.145813%)" stop-opacity="1"/>
<stop offset="0.0195312" stop-color="rgb(57.701111%, 54.174805%, 54.440308%)" stop-opacity="1"/>
<stop offset="0.0234375" stop-color="rgb(57.975769%, 54.463196%, 54.736328%)" stop-opacity="1"/>
<stop offset="0.0273438" stop-color="rgb(58.251953%, 54.753113%, 55.0354%)" stop-opacity="1"/>
<stop offset="0.03125" stop-color="rgb(58.525085%, 55.036926%, 55.355835%)" stop-opacity="1"/>
<stop offset="0.0351562" stop-color="rgb(58.796692%, 55.311584%, 55.696106%)" stop-opacity="1"/>
<stop offset="0.0390625" stop-color="rgb(59.066772%, 55.587769%, 56.036377%)" stop-opacity="1"/>
<stop offset="0.0429688" stop-color="rgb(59.338379%, 55.865479%, 56.375122%)" stop-opacity="1"/>
<stop offset="0.046875" stop-color="rgb(59.614563%, 56.152344%, 56.695557%)" stop-opacity="1"/>
<stop offset="0.0507812" stop-color="rgb(59.895325%, 56.44989%, 57.000732%)" stop-opacity="1"/>
<stop offset="0.0546875" stop-color="rgb(60.176086%, 56.745911%, 57.305908%)" stop-opacity="1"/>
<stop offset="0.0585938" stop-color="rgb(60.458374%, 57.044983%, 57.608032%)" stop-opacity="1"/>
<stop offset="0.0625" stop-color="rgb(60.740662%, 57.344055%, 57.879639%)" stop-opacity="1"/>
<stop offset="0.0664062" stop-color="rgb(61.024475%, 57.643127%, 58.126831%)" stop-opacity="1"/>
<stop offset="0.0703125" stop-color="rgb(61.308289%, 57.943726%, 58.374023%)" stop-opacity="1"/>
<stop offset="0.0742188" stop-color="rgb(61.593628%, 58.244324%, 58.630371%)" stop-opacity="1"/>
<stop offset="0.078125" stop-color="rgb(61.880493%, 58.551025%, 58.920288%)" stop-opacity="1"/>
<stop offset="0.0820312" stop-color="rgb(62.167358%, 58.856201%, 59.234619%)" stop-opacity="1"/>
<stop offset="0.0859375" stop-color="rgb(62.45575%, 59.161377%, 59.54895%)" stop-opacity="1"/>
<stop offset="0.0898438" stop-color="rgb(62.744141%, 59.469604%, 59.857178%)" stop-opacity="1"/>
<stop offset="0.09375" stop-color="rgb(63.032532%, 59.776306%, 60.133362%)" stop-opacity="1"/>
<stop offset="0.0976562" stop-color="rgb(63.322449%, 60.084534%, 60.386658%)" stop-opacity="1"/>
<stop offset="0.101562" stop-color="rgb(63.613892%, 60.394287%, 60.641479%)" stop-opacity="1"/>
<stop offset="0.105469" stop-color="rgb(63.916016%, 60.704041%, 60.914612%)" stop-opacity="1"/>
<stop offset="0.109375" stop-color="rgb(64.254761%, 61.016846%, 61.24115%)" stop-opacity="1"/>
<stop offset="0.113281" stop-color="rgb(64.614868%, 61.328125%, 61.604309%)" stop-opacity="1"/>
<stop offset="0.117188" stop-color="rgb(64.976501%, 61.64093%, 61.967468%)" stop-opacity="1"/>
<stop offset="0.121094" stop-color="rgb(65.325928%, 61.953735%, 62.310791%)" stop-opacity="1"/>
<stop offset="0.125" stop-color="rgb(65.643311%, 62.268066%, 62.60376%)" stop-opacity="1"/>
<stop offset="0.128906" stop-color="rgb(65.939331%, 62.585449%, 62.866211%)" stop-opacity="1"/>
<stop offset="0.132812" stop-color="rgb(66.236877%, 62.902832%, 63.127136%)" stop-opacity="1"/>
<stop offset="0.136719" stop-color="rgb(66.519165%, 63.218689%, 63.404846%)" stop-opacity="1"/>
<stop offset="0.140625" stop-color="rgb(66.763306%, 63.528442%, 63.719177%)" stop-opacity="1"/>
<stop offset="0.144531" stop-color="rgb(66.98761%, 63.833618%, 64.053345%)" stop-opacity="1"/>
<stop offset="0.148438" stop-color="rgb(67.210388%, 64.137268%, 64.387512%)" stop-opacity="1"/>
<stop offset="0.152344" stop-color="rgb(67.451477%, 64.431763%, 64.700317%)" stop-opacity="1"/>
<stop offset="0.15625" stop-color="rgb(67.732239%, 64.697266%, 64.964294%)" stop-opacity="1"/>
<stop offset="0.160156" stop-color="rgb(68.032837%, 64.950562%, 65.202332%)" stop-opacity="1"/>
<stop offset="0.164062" stop-color="rgb(68.333435%, 65.202332%, 65.440369%)" stop-opacity="1"/>
<stop offset="0.167969" stop-color="rgb(68.635559%, 65.47699%, 65.705872%)" stop-opacity="1"/>
<stop offset="0.171875" stop-color="rgb(68.940735%, 65.788269%, 66.021729%)" stop-opacity="1"/>
<stop offset="0.175781" stop-color="rgb(69.245911%, 66.119385%, 66.363525%)" stop-opacity="1"/>
<stop offset="0.179688" stop-color="rgb(69.554138%, 66.452026%, 66.706848%)" stop-opacity="1"/>
<stop offset="0.183594" stop-color="rgb(69.837952%, 66.758728%, 67.024231%)" stop-opacity="1"/>
<stop offset="0.1875" stop-color="rgb(70.082092%, 67.016602%, 67.289734%)" stop-opacity="1"/>
<stop offset="0.191406" stop-color="rgb(70.307922%, 67.254639%, 67.533875%)" stop-opacity="1"/>
<stop offset="0.195312" stop-color="rgb(70.535278%, 67.494202%, 67.778015%)" stop-opacity="1"/>
<stop offset="0.199219" stop-color="rgb(70.765686%, 67.741394%, 68.032837%)" stop-opacity="1"/>
<stop offset="0.203125" stop-color="rgb(71.002197%, 68.002319%, 68.307495%)" stop-opacity="1"/>
<stop offset="0.207031" stop-color="rgb(71.243286%, 68.2724%, 68.586731%)" stop-opacity="1"/>
<stop offset="0.210938" stop-color="rgb(71.482849%, 68.540955%, 68.867493%)" stop-opacity="1"/>
<stop offset="0.214844" stop-color="rgb(71.71936%, 68.80188%, 69.137573%)" stop-opacity="1"/>
<stop offset="0.21875" stop-color="rgb(71.949768%, 69.049072%, 69.392395%)" stop-opacity="1"/>
<stop offset="0.222656" stop-color="rgb(72.180176%, 69.291687%, 69.642639%)" stop-opacity="1"/>
<stop offset="0.226562" stop-color="rgb(72.410583%, 69.535828%, 69.892883%)" stop-opacity="1"/>
<stop offset="0.230469" stop-color="rgb(72.669983%, 69.813538%, 70.155334%)" stop-opacity="1"/>
<stop offset="0.234375" stop-color="rgb(72.975159%, 70.143127%, 70.43457%)" stop-opacity="1"/>
<stop offset="0.238281" stop-color="rgb(73.291016%, 70.487976%, 70.71991%)" stop-opacity="1"/>
<stop offset="0.242188" stop-color="rgb(73.608398%, 70.832825%, 71.006775%)" stop-opacity="1"/>
<stop offset="0.246094" stop-color="rgb(73.893738%, 71.141052%, 71.279907%)" stop-opacity="1"/>
<stop offset="0.25" stop-color="rgb(74.137878%, 71.400452%, 71.539307%)" stop-opacity="1"/>
<stop offset="0.253906" stop-color="rgb(74.371338%, 71.64917%, 71.792603%)" stop-opacity="1"/>
<stop offset="0.257812" stop-color="rgb(74.728394%, 72.035217%, 72.192383%)" stop-opacity="1"/>
<stop offset="0.265625" stop-color="rgb(75.091553%, 72.436523%, 72.608948%)" stop-opacity="1"/>
<stop offset="0.269531" stop-color="rgb(75.341797%, 72.720337%, 72.904968%)" stop-opacity="1"/>
<stop offset="0.273438" stop-color="rgb(75.709534%, 73.130798%, 73.33374%)" stop-opacity="1"/>
<stop offset="0.28125" stop-color="rgb(76.072693%, 73.527527%, 73.745728%)" stop-opacity="1"/>
<stop offset="0.285156" stop-color="rgb(76.31073%, 73.780823%, 74.005127%)" stop-opacity="1"/>
<stop offset="0.289062" stop-color="rgb(76.547241%, 74.034119%, 74.266052%)" stop-opacity="1"/>
<stop offset="0.292969" stop-color="rgb(76.823425%, 74.299622%, 74.528503%)" stop-opacity="1"/>
<stop offset="0.296875" stop-color="rgb(77.142334%, 74.575806%, 74.79248%)" stop-opacity="1"/>
<stop offset="0.300781" stop-color="rgb(77.467346%, 74.855042%, 75.056458%)" stop-opacity="1"/>
<stop offset="0.304688" stop-color="rgb(77.790833%, 75.134277%, 75.320435%)" stop-opacity="1"/>
<stop offset="0.308594" stop-color="rgb(78.076172%, 75.402832%, 75.585938%)" stop-opacity="1"/>
<stop offset="0.3125" stop-color="rgb(78.320312%, 75.660706%, 75.849915%)" stop-opacity="1"/>
<stop offset="0.316406" stop-color="rgb(78.559875%, 75.918579%, 76.115417%)" stop-opacity="1"/>
<stop offset="0.320312" stop-color="rgb(78.886414%, 76.309204%, 76.493835%)" stop-opacity="1"/>
<stop offset="0.328125" stop-color="rgb(79.177856%, 76.704407%, 76.855469%)" stop-opacity="1"/>
<stop offset="0.332031" stop-color="rgb(79.348755%, 76.971436%, 77.082825%)" stop-opacity="1"/>
<stop offset="0.335938" stop-color="rgb(79.689026%, 77.384949%, 77.490234%)" stop-opacity="1"/>
<stop offset="0.34375" stop-color="rgb(80.108643%, 77.809143%, 77.958679%)" stop-opacity="1"/>
<stop offset="0.347656" stop-color="rgb(80.59845%, 78.239441%, 78.482056%)" stop-opacity="1"/>
<stop offset="0.355469" stop-color="rgb(81.089783%, 78.710938%, 79.022217%)" stop-opacity="1"/>
<stop offset="0.363281" stop-color="rgb(81.428528%, 79.08783%, 79.415894%)" stop-opacity="1"/>
<stop offset="0.371094" stop-color="rgb(81.767273%, 79.466248%, 79.811096%)" stop-opacity="1"/>
<stop offset="0.378906" stop-color="rgb(82.115173%, 79.86145%, 80.220032%)" stop-opacity="1"/>
<stop offset="0.386719" stop-color="rgb(82.420349%, 80.244446%, 80.586243%)" stop-opacity="1"/>
<stop offset="0.390625" stop-color="rgb(82.672119%, 80.596924%, 80.900574%)" stop-opacity="1"/>
<stop offset="0.394531" stop-color="rgb(83.055115%, 81.111145%, 81.358337%)" stop-opacity="1"/>
<stop offset="0.402344" stop-color="rgb(83.439636%, 81.561279%, 81.764221%)" stop-opacity="1"/>
<stop offset="0.40625" stop-color="rgb(83.700562%, 81.781006%, 81.970215%)" stop-opacity="1"/>
<stop offset="0.410156" stop-color="rgb(84.082031%, 82.106018%, 82.276917%)" stop-opacity="1"/>
<stop offset="0.417969" stop-color="rgb(84.503174%, 82.514954%, 82.685852%)" stop-opacity="1"/>
<stop offset="0.425781" stop-color="rgb(84.863281%, 82.917786%, 83.106995%)" stop-opacity="1"/>
<stop offset="0.433594" stop-color="rgb(85.177612%, 83.265686%, 83.467102%)" stop-opacity="1"/>
<stop offset="0.4375" stop-color="rgb(85.430908%, 83.540344%, 83.752441%)" stop-opacity="1"/>
<stop offset="0.441406" stop-color="rgb(85.795593%, 83.937073%, 84.146118%)" stop-opacity="1"/>
<stop offset="0.449219" stop-color="rgb(86.209106%, 84.390259%, 84.519958%)" stop-opacity="1"/>
<stop offset="0.457031" stop-color="rgb(86.560059%, 84.779358%, 84.78241%)" stop-opacity="1"/>
<stop offset="0.464844" stop-color="rgb(86.911011%, 85.174561%, 85.13031%)" stop-opacity="1"/>
<stop offset="0.472656" stop-color="rgb(87.283325%, 85.592651%, 85.566711%)" stop-opacity="1"/>
<stop offset="0.480469" stop-color="rgb(87.609863%, 85.952759%, 85.940552%)" stop-opacity="1"/>
<stop offset="0.484375" stop-color="rgb(87.866211%, 86.233521%, 86.231995%)" stop-opacity="1"/>
<stop offset="0.488281" stop-color="rgb(88.230896%, 86.608887%, 86.634827%)" stop-opacity="1"/>
<stop offset="0.496094" stop-color="rgb(88.63678%, 86.955261%, 87.065125%)" stop-opacity="1"/>
<stop offset="0.503906" stop-color="rgb(89.076233%, 87.309265%, 87.530518%)" stop-opacity="1"/>
<stop offset="0.515625" stop-color="rgb(89.608765%, 87.852478%, 88.142395%)" stop-opacity="1"/>
<stop offset="0.527344" stop-color="rgb(90.1474%, 88.464355%, 88.786316%)" stop-opacity="1"/>
<stop offset="0.539062" stop-color="rgb(90.565491%, 89.039612%, 89.309692%)" stop-opacity="1"/>
<stop offset="0.550781" stop-color="rgb(90.924072%, 89.593506%, 89.77356%)" stop-opacity="1"/>
<stop offset="0.5625" stop-color="rgb(91.40625%, 90.155029%, 90.350342%)" stop-opacity="1"/>
<stop offset="0.574219" stop-color="rgb(91.940308%, 90.602112%, 90.92865%)" stop-opacity="1"/>
<stop offset="0.585938" stop-color="rgb(92.478943%, 91.073608%, 91.392517%)" stop-opacity="1"/>
<stop offset="0.597656" stop-color="rgb(92.861938%, 91.5802%, 91.786194%)" stop-opacity="1"/>
<stop offset="0.609375" stop-color="rgb(93.060303%, 91.986084%, 92.225647%)" stop-opacity="1"/>
<stop offset="0.621094" stop-color="rgb(93.429565%, 92.501831%, 92.802429%)" stop-opacity="1"/>
<stop offset="0.632812" stop-color="rgb(93.882751%, 92.932129%, 93.226624%)" stop-opacity="1"/>
<stop offset="0.640625" stop-color="rgb(94.239807%, 93.161011%, 93.406677%)" stop-opacity="1"/>
<stop offset="0.648438" stop-color="rgb(94.604492%, 93.486023%, 93.719482%)" stop-opacity="1"/>
<stop offset="0.65625" stop-color="rgb(94.973755%, 93.913269%, 94.169617%)" stop-opacity="1"/>
<stop offset="0.664062" stop-color="rgb(95.385742%, 94.494629%, 94.694519%)" stop-opacity="1"/>
<stop offset="0.683594" stop-color="rgb(95.849609%, 95.108032%, 95.275879%)" stop-opacity="1"/>
<stop offset="0.703125" stop-color="rgb(96.185303%, 95.526123%, 95.689392%)" stop-opacity="1"/>
<stop offset="0.710938" stop-color="rgb(96.626282%, 95.939636%, 96.177673%)" stop-opacity="1"/>
<stop offset="0.726562" stop-color="rgb(97.0047%, 96.372986%, 96.640015%)" stop-opacity="1"/>
<stop offset="0.742188" stop-color="rgb(97.37854%, 96.791077%, 97.091675%)" stop-opacity="1"/>
<stop offset="0.757812" stop-color="rgb(98.031616%, 97.375488%, 97.662354%)" stop-opacity="1"/>
<stop offset="0.785156" stop-color="rgb(98.406982%, 97.801208%, 98.002625%)" stop-opacity="1"/>
<stop offset="0.808594" stop-color="rgb(98.799133%, 98.25592%, 98.475647%)" stop-opacity="1"/>
<stop offset="0.832031" stop-color="rgb(99.1745%, 98.690796%, 98.947144%)" stop-opacity="1"/>
<stop offset="0.871094" stop-color="rgb(99.287415%, 98.81897%, 99.24469%)" stop-opacity="1"/>
<stop offset="0.886719" stop-color="rgb(99.499512%, 99.049377%, 99.546814%)" stop-opacity="1"/>
<stop offset="0.914062" stop-color="rgb(99.804688%, 99.403381%, 99.743652%)" stop-opacity="1"/>
<stop offset="1" stop-color="rgb(99.969482%, 99.607849%, 99.822998%)" stop-opacity="1"/>
</radialGradient>
<clipPath id="clip-3">
<path clip-rule="nonzero" d="M 1503 2728 L 2432 2728 L 2432 2748 L 1503 2748 Z M 1503 2728 "/>
</clipPath>
<clipPath id="clip-4">
<path clip-rule="nonzero" d="M 2000.578125 2747.488281 C 1992.691406 2747.488281 1984.738281 2747.488281 1976.878906 2747.46875 L 1976.878906 2734.480469 L 2054.738281 2734.480469 C 2071.089844 2734.480469 2085.699219 2738.269531 2098.339844 2747.039062 C 2066.011719 2747.339844 2033.441406 2747.488281 2000.578125 2747.488281 M 1721.300781 2743.78125 C 1717.75 2743.679688 1714.21875 2743.578125 1710.679688 2743.480469 L 1721.300781 2728.921875 L 1721.300781 2743.78125 M 2423.71875 2738.820312 L 2427.640625 2730.070312 L 2431.421875 2738.488281 C 2428.839844 2738.601562 2426.308594 2738.710938 2423.71875 2738.820312 M 1508.53125 2735.671875 C 1506.898438 2735.578125 1505.230469 2735.5 1503.601562 2735.421875 L 1503.601562 2728.921875 L 1508.53125 2735.671875 "/>
</clipPath>
<clipPath id="clip-5">
<path clip-rule="nonzero" d="M 2000.578125 2747.488281 C 1992.691406 2747.488281 1984.738281 2747.488281 1976.878906 2747.46875 L 1976.878906 2734.480469 L 2054.738281 2734.480469 C 2071.089844 2734.480469 2085.699219 2738.269531 2098.339844 2747.039062 C 2066.011719 2747.339844 2033.441406 2747.488281 2000.578125 2747.488281 M 1721.300781 2743.78125 C 1717.75 2743.679688 1714.21875 2743.578125 1710.679688 2743.480469 L 1721.300781 2728.921875 L 1721.300781 2743.78125 M 2423.71875 2738.820312 L 2427.640625 2730.070312 L 2431.421875 2738.488281 C 2428.839844 2738.601562 2426.308594 2738.710938 2423.71875 2738.820312 M 1508.53125 2735.671875 C 1506.898438 2735.578125 1505.230469 2735.5 1503.601562 2735.421875 L 1503.601562 2728.921875 L 1508.53125 2735.671875 "/>
</clipPath>
<radialGradient id="radial-pattern-1" gradientUnits="userSpaceOnUse" cx="0" cy="0" fx="0" fy="0" r="857.4415" gradientTransform="matrix(1.749087, 0, 0, 0.250913, 2000.5, 2532.39)">
<stop offset="0" stop-color="rgb(6.736755%, 6.280518%, 5.807495%)" stop-opacity="1"/>
<stop offset="0.0078125" stop-color="rgb(6.803894%, 6.347656%, 5.89447%)" stop-opacity="1"/>
<stop offset="0.0195312" stop-color="rgb(6.872559%, 6.407166%, 5.944824%)" stop-opacity="1"/>
<stop offset="0.03125" stop-color="rgb(6.990051%, 6.510925%, 6.039429%)" stop-opacity="1"/>
<stop offset="0.0585938" stop-color="rgb(7.08313%, 6.613159%, 6.14624%)" stop-opacity="1"/>
<stop offset="0.0703125" stop-color="rgb(7.118225%, 6.666565%, 6.204224%)" stop-opacity="1"/>
<stop offset="0.0820312" stop-color="rgb(7.217407%, 6.741333%, 6.300354%)" stop-opacity="1"/>
<stop offset="0.09375" stop-color="rgb(7.371521%, 6.863403%, 6.439209%)" stop-opacity="1"/>
<stop offset="0.121094" stop-color="rgb(7.466125%, 6.968689%, 6.538391%)" stop-opacity="1"/>
<stop offset="0.132812" stop-color="rgb(7.493591%, 7.008362%, 6.568909%)" stop-opacity="1"/>
<stop offset="0.144531" stop-color="rgb(7.585144%, 7.099915%, 6.65741%)" stop-opacity="1"/>
<stop offset="0.167969" stop-color="rgb(7.698059%, 7.191467%, 6.758118%)" stop-opacity="1"/>
<stop offset="0.179688" stop-color="rgb(7.771301%, 7.23877%, 6.816101%)" stop-opacity="1"/>
<stop offset="0.191406" stop-color="rgb(7.885742%, 7.331848%, 6.918335%)" stop-opacity="1"/>
<stop offset="0.214844" stop-color="rgb(7.96051%, 7.408142%, 6.990051%)" stop-opacity="1"/>
<stop offset="0.226562" stop-color="rgb(7.984924%, 7.466125%, 7.032776%)" stop-opacity="1"/>
<stop offset="0.238281" stop-color="rgb(8.082581%, 7.568359%, 7.131958%)" stop-opacity="1"/>
<stop offset="0.261719" stop-color="rgb(8.181763%, 7.655334%, 7.221985%)" stop-opacity="1"/>
<stop offset="0.28125" stop-color="rgb(8.285522%, 7.751465%, 7.321167%)" stop-opacity="1"/>
<stop offset="0.300781" stop-color="rgb(8.406067%, 7.894897%, 7.475281%)" stop-opacity="1"/>
<stop offset="0.320312" stop-color="rgb(8.473206%, 7.987976%, 7.577515%)" stop-opacity="1"/>
<stop offset="0.328125" stop-color="rgb(8.535767%, 8.013916%, 7.600403%)" stop-opacity="1"/>
<stop offset="0.347656" stop-color="rgb(8.653259%, 8.09021%, 7.675171%)" stop-opacity="1"/>
<stop offset="0.367188" stop-color="rgb(8.757019%, 8.187866%, 7.777405%)" stop-opacity="1"/>
<stop offset="0.386719" stop-color="rgb(8.776855%, 8.241272%, 7.833862%)" stop-opacity="1"/>
<stop offset="0.402344" stop-color="rgb(8.825684%, 8.280945%, 7.870483%)" stop-opacity="1"/>
<stop offset="0.417969" stop-color="rgb(8.927917%, 8.378601%, 7.949829%)" stop-opacity="1"/>
<stop offset="0.433594" stop-color="rgb(8.995056%, 8.479309%, 8.053589%)" stop-opacity="1"/>
<stop offset="0.46875" stop-color="rgb(9.062195%, 8.537292%, 8.119202%)" stop-opacity="1"/>
<stop offset="0.484375" stop-color="rgb(9.150696%, 8.636475%, 8.224487%)" stop-opacity="1"/>
<stop offset="0.515625" stop-color="rgb(9.191895%, 8.709717%, 8.299255%)" stop-opacity="1"/>
<stop offset="0.527344" stop-color="rgb(9.239197%, 8.731079%, 8.326721%)" stop-opacity="1"/>
<stop offset="0.554688" stop-color="rgb(9.32312%, 8.776855%, 8.39386%)" stop-opacity="1"/>
<stop offset="0.566406" stop-color="rgb(9.382629%, 8.856201%, 8.468628%)" stop-opacity="1"/>
<stop offset="0.578125" stop-color="rgb(9.44519%, 8.912659%, 8.499146%)" stop-opacity="1"/>
<stop offset="0.601562" stop-color="rgb(9.494019%, 8.932495%, 8.520508%)" stop-opacity="1"/>
<stop offset="0.613281" stop-color="rgb(9.538269%, 9.007263%, 8.609009%)" stop-opacity="1"/>
<stop offset="0.660156" stop-color="rgb(9.596252%, 9.106445%, 8.700562%)" stop-opacity="1"/>
<stop offset="0.679688" stop-color="rgb(9.661865%, 9.130859%, 8.74176%)" stop-opacity="1"/>
<stop offset="0.71875" stop-color="rgb(9.709167%, 9.152222%, 8.770752%)" stop-opacity="1"/>
<stop offset="0.734375" stop-color="rgb(9.703064%, 9.187317%, 8.782959%)" stop-opacity="1"/>
<stop offset="0.765625" stop-color="rgb(9.7229%, 9.225464%, 8.815002%)" stop-opacity="1"/>
<stop offset="0.777344" stop-color="rgb(9.791565%, 9.291077%, 8.888245%)" stop-opacity="1"/>
<stop offset="0.804688" stop-color="rgb(9.884644%, 9.333801%, 8.955383%)" stop-opacity="1"/>
<stop offset="0.902344" stop-color="rgb(9.924316%, 9.370422%, 8.987427%)" stop-opacity="1"/>
<stop offset="0.925781" stop-color="rgb(9.919739%, 9.403992%, 9.00116%)" stop-opacity="1"/>
<stop offset="1" stop-color="rgb(9.918213%, 9.405518%, 9.00116%)" stop-opacity="1"/>
</radialGradient>
</defs>
<path fill-rule="nonzero" fill="rgb(100%, 100%, 100%)" fill-opacity="1" d="M 0.5 4000.5 L 4000.5 4000.5 L 4000.5 0.5 L 0.5 0.5 Z M 0.5 4000.5 "/>
<path fill-rule="nonzero" fill="rgb(13.729858%, 12.159729%, 12.548828%)" fill-opacity="1" d="M 4000.5 4000.5 L 4000.5 4000 L 1 4000 L 1 1 L 4000 1 L 4000 4000.5 L 4000.5 4000.5 L 4000.5 4000 L 4000.5 4000.5 L 4001 4000.5 L 4001 0 L 0 0 L 0 4001 L 4001 4001 L 4001 4000.5 L 4000.5 4000.5 "/>
<path fill-rule="nonzero" fill="rgb(9.869385%, 9.355164%, 8.947754%)" fill-opacity="1" d="M 3201.78125 2734.480469 L 3271.269531 2861.25 L 3271.269531 2956.359375 L 3315.21875 2956.359375 L 3315.21875 2861.25 L 3384.710938 2734.480469 L 3333.550781 2734.480469 L 3293.519531 2810.710938 L 3252.910156 2734.480469 L 3201.78125 2734.480469 M 2776.339844 2728.921875 L 2776.339844 2956.359375 L 2820.800781 2956.359375 L 2820.800781 2833.480469 L 2954.871094 2960.808594 L 2954.871094 2733.371094 L 2910.328125 2733.371094 L 2910.328125 2856.808594 L 2776.339844 2728.921875 M 2407.101562 2883.539062 L 2427.640625 2836.851562 L 2448.191406 2883.539062 L 2407.101562 2883.539062 M 2326.160156 2956.359375 L 2374.21875 2956.359375 L 2389.550781 2923 L 2465.738281 2923 L 2480.699219 2956.359375 L 2529.128906 2956.359375 L 2427.640625 2730.070312 L 2326.160156 2956.359375 M 2088.390625 2811.789062 C 2088.390625 2830.191406 2073.070312 2845.699219 2054.738281 2845.699219 L 2021.640625 2845.699219 L 2021.640625 2778.390625 L 2054.738281 2778.390625 C 2073.070312 2778.390625 2088.390625 2794.011719 2088.390625 2811.789062 M 1976.878906 2956.359375 L 2021.640625 2956.359375 L 2021.640625 2889.121094 L 2054.738281 2889.121094 C 2076.140625 2889.121094 2095.058594 2882.390625 2110.089844 2866.839844 C 2125.339844 2852.359375 2133.160156 2834.628906 2133.160156 2811.789062 C 2133.160156 2790.640625 2125.339844 2772.871094 2110.089844 2757.289062 C 2095.058594 2741.140625 2076.441406 2734.480469 2054.738281 2734.480469 L 1976.878906 2734.480469 L 1976.878906 2956.359375 M 1503.601562 2728.921875 L 1503.601562 2956.359375 L 1548.140625 2956.359375 L 1548.140625 2864.621094 L 1612.601562 2953.070312 L 1676.839844 2864.621094 L 1676.839844 2956.359375 L 1721.300781 2956.359375 L 1721.300781 2728.921875 L 1612.601562 2877.949219 L 1503.601562 2728.921875 M 1143.800781 2778.390625 C 1162.128906 2778.390625 1178.269531 2783.980469 1191.640625 2797.308594 C 1204.96875 2810.710938 1211.628906 2826.820312 1211.628906 2845.699219 C 1211.628906 2864.621094 1204.96875 2880.171875 1191.640625 2892.980469 C 1177.980469 2906.308594 1162.128906 2913.039062 1143.800781 2913.039062 C 1124.878906 2913.039062 1109.070312 2906.308594 1095.96875 2892.980469 C 1082.339844 2880.171875 1075.941406 2863.46875 1075.941406 2845.699219 C 1075.941406 2826.820312 1082.339844 2810.710938 1095.96875 2797.308594 C 1109.070312 2783.980469 1124.878906 2778.390625 1143.800781 2778.390625 M 1143.800781 2732.261719 C 1112.671875 2732.261719 1085.929688 2743.371094 1064.019531 2766.171875 C 1042.03125 2788.421875 1030.878906 2814.011719 1030.878906 2845.699219 C 1030.878906 2876.871094 1042.03125 2903.011719 1064.019531 2925.230469 C 1085.929688 2946.398438 1112.671875 2957.511719 1143.800781 2957.511719 C 1174.941406 2957.511719 1201.378906 2947.480469 1223.589844 2925.230469 C 1245.578125 2903.011719 1256.691406 2876.871094 1256.691406 2845.699219 C 1256.691406 2814.011719 1245.578125 2788.421875 1223.589844 2766.171875 C 1201.378906 2743.371094 1174.941406 2732.261719 1143.800781 2732.261719 M 808.996094 2925.230469 L 777.007812 2894.128906 C 763.976562 2906.308594 747.832031 2913.039062 728.949219 2913.039062 C 710.550781 2913.039062 694.445312 2906.308594 681.375 2894.128906 C 668.011719 2880.171875 661.34375 2864.621094 661.34375 2845.699219 C 661.34375 2826.820312 668.011719 2810.710938 681.375 2797.308594 C 694.445312 2783.980469 710.550781 2778.390625 728.949219 2778.390625 C 747.574219 2778.390625 763.382812 2783.980469 777.007812 2797.308594 L 808.738281 2766.171875 C 790.371094 2748.398438 763.121094 2732.261719 728.949219 2732.261719 C 697.777344 2732.261719 671.636719 2743.371094 649.386719 2766.171875 C 627.46875 2787.351562 616.285156 2814.011719 616.285156 2845.699219 C 616.285156 2875.71875 627.46875 2903.011719 649.386719 2925.230469 C 671.378906 2946.398438 697.777344 2957.511719 728.949219 2957.511719 C 763.679688 2957.511719 790.964844 2943.039062 808.996094 2925.230469 "/>
<g clip-path="url(#clip-0)">
<g clip-path="url(#clip-1)">
<g clip-path="url(#clip-2)">
<path fill-rule="nonzero" fill="url(#radial-pattern-0)" d="M 500.5 2317.28125 L 500.5 2747.46875 L 3500.5 2747.46875 L 3500.5 2317.28125 Z M 500.5 2317.28125 "/>
</g>
</g>
</g>
<g clip-path="url(#clip-3)">
<g clip-path="url(#clip-4)">
<g clip-path="url(#clip-5)">
<path fill-rule="nonzero" fill="url(#radial-pattern-1)" d="M 1503.601562 2728.921875 L 1503.601562 2747.488281 L 2431.421875 2747.488281 L 2431.421875 2728.921875 Z M 1503.601562 2728.921875 "/>
</g>
</g>
</g>
<path fill-rule="nonzero" fill="rgb(52.017212%, 14.964294%, 58.065796%)" fill-opacity="1" d="M 1721.960938 1045.28125 C 1751.75 1030.871094 1786.191406 1048.878906 1799.980469 1076.820312 C 1867.890625 1190.851562 1932.640625 1318.160156 1925.171875 1454.601562 C 1920.25 1581.628906 1787.058594 1672.039062 1666.53125 1656.308594 C 1558.199219 1642.429688 1462.441406 1567.050781 1413.859375 1470.671875 C 1391.71875 1431.050781 1435.730469 1382.550781 1477.199219 1398.191406 C 1508.910156 1415.410156 1527.980469 1449.410156 1560.839844 1465.660156 C 1646.851562 1517.851562 1782.410156 1453.980469 1783.640625 1349.609375 C 1783.808594 1267.640625 1738.039062 1196.128906 1695.699219 1129.269531 C 1675.839844 1100.980469 1690.339844 1057.660156 1721.960938 1045.28125 "/>
<path fill-rule="nonzero" fill="rgb(90.226746%, 5.207825%, 55.561829%)" fill-opacity="1" d="M 2129.960938 1094.558594 C 2173.191406 1081.738281 2225.199219 1118.199219 2217.289062 1165.199219 C 2200.070312 1246.730469 2174.160156 1330.71875 2191.988281 1414.449219 C 2198.671875 1448.621094 2228.449219 1478.578125 2264.910156 1476.03125 C 2351.890625 1474.628906 2420.058594 1409.789062 2471.460938 1346.179688 C 2497.019531 1315.871094 2515.300781 1265.53125 2563.269531 1269.308594 C 2611.851562 1265.53125 2651.390625 1321.320312 2631 1365.691406 C 2578.03125 1473.660156 2512.929688 1577.769531 2425.25 1661.058594 C 2364.890625 1717.109375 2287.488281 1763.5 2202.53125 1761.121094 C 2131.28125 1761.828125 2056.339844 1729.671875 2020.058594 1665.980469 C 1981.050781 1596.828125 1983.949219 1513.550781 1993.699219 1437.199219 C 2008.898438 1334.941406 2042.460938 1236.449219 2082.078125 1141.300781 C 2090.25 1119.601562 2106.589844 1100.101562 2129.960938 1094.558594 "/>
<path fill-rule="nonzero" fill="rgb(27.391052%, 74.383545%, 51.956177%)" fill-opacity="1" d="M 1485.898438 1723.339844 C 1549.769531 1706.300781 1622.691406 1705.511719 1680.410156 1741.621094 C 1744.28125 1781.589844 1786.980469 1854.25 1790.929688 1929.539062 C 1790.929688 1990.25 1769.578125 2049.289062 1738.570312 2100.859375 C 1681.460938 2197.5 1599.320312 2276.21875 1514.628906 2348.609375 C 1489.671875 2373.558594 1441.621094 2374.789062 1420.359375 2344.480469 C 1401.820312 2320.578125 1408.230469 2284.039062 1431.429688 2265.679688 C 1489.238281 2215.25 1543.789062 2159.808594 1584.910156 2094.621094 C 1605.03125 2059.660156 1624.441406 2019.679688 1617.679688 1978.300781 C 1605.640625 1925.148438 1556.359375 1885.53125 1503.820312 1876.648438 C 1461.210938 1869.980469 1417.898438 1880.339844 1378.710938 1897.03125 C 1359.210938 1905.03125 1338.121094 1914.429688 1316.691406 1908.019531 C 1281.109375 1896.679688 1269.769531 1841.511719 1302.101562 1819.71875 C 1356.839844 1777.109375 1418.601562 1741.710938 1485.898438 1723.339844 "/>
<path fill-rule="nonzero" fill="rgb(37.669373%, 78.196716%, 87.023926%)" fill-opacity="1" d="M 2330.269531 1795.03125 C 2420.328125 1779.480469 2507.480469 1819.628906 2581.191406 1867.519531 C 2624.410156 1896.769531 2666.058594 1929.011719 2703.480469 1965.558594 C 2727.46875 1988.230469 2720.789062 2033.828125 2690.128906 2047.710938 C 2665.789062 2064.839844 2637.589844 2048.851562 2616.421875 2034.699219 C 2569.679688 2003.25 2515.648438 1977.25 2458.191406 1978.300781 C 2425.691406 1978.828125 2386.148438 1997.980469 2385.269531 2034.878906 C 2388.960938 2090.230469 2419.800781 2138.808594 2450.199219 2183.53125 C 2460.648438 2199.871094 2474.96875 2216.390625 2473.921875 2237.121094 C 2475.5 2264.53125 2449.488281 2287.988281 2422.699219 2286.320312 C 2400.289062 2287.460938 2384.039062 2269.890625 2369.808594 2255.128906 C 2313.488281 2194.949219 2261.660156 2129.238281 2226.339844 2054.378906 C 2204.46875 2008.078125 2191.019531 1954.761719 2203.410156 1903.980469 C 2219.230469 1846.25 2273.429688 1806.460938 2330.269531 1795.03125 "/>
<path fill-rule="nonzero" fill="rgb(71.485901%, 86.471558%, 10.339355%)" fill-opacity="1" d="M 1885.988281 1999.03125 C 1926.230469 1962.21875 1982.191406 1945.710938 2036.050781 1951.679688 C 2091.128906 1954.761719 2140.160156 1990.070312 2168.179688 2036.289062 C 2214.421875 2110.46875 2225.800781 2201.441406 2214.730469 2286.949219 C 2214.460938 2289.109375 2214.089844 2291.238281 2213.570312 2293.351562 C 2208.78125 2312.671875 2198.171875 2333.019531 2177.761719 2338.769531 C 2174.390625 2339.808594 2171.039062 2340.398438 2167.710938 2340.640625 C 2139.519531 2342.640625 2115.988281 2319.339844 2114.101562 2291.140625 C 2111.648438 2254.71875 2113.929688 2217.570312 2097.628906 2184.058594 C 2077.429688 2136.621094 2026.558594 2103.761719 1974.640625 2107.621094 C 1922.890625 2103.671875 1888.628906 2150.941406 1869.910156 2192.929688 C 1850.96875 2231.210938 1848.691406 2274.941406 1834.25 2314.53125 C 1827.910156 2331.921875 1811.710938 2344.21875 1793.210938 2344.71875 C 1790.378906 2344.800781 1787.511719 2344.699219 1784.628906 2344.460938 C 1763.820312 2342.738281 1746.609375 2326.421875 1743.910156 2305.710938 C 1742.441406 2294.441406 1742.890625 2283.019531 1746.480469 2271.738281 C 1771.078125 2172.460938 1806.828125 2068.441406 1885.988281 1999.03125 "/>
<path fill-rule="nonzero" fill="rgb(27.391052%, 74.383545%, 51.956177%)" fill-opacity="1" d="M 1555.078125 2009.640625 C 1555.078125 2054.03125 1519.089844 2090.019531 1474.699219 2090.019531 C 1430.308594 2090.019531 1394.320312 2054.03125 1394.320312 2009.640625 C 1394.320312 1965.238281 1430.308594 1929.261719 1474.699219 1929.261719 C 1519.089844 1929.261719 1555.078125 1965.238281 1555.078125 2009.640625 "/>
<path fill-rule="nonzero" fill="rgb(71.485901%, 86.471558%, 10.339355%)" fill-opacity="1" d="M 2054.609375 2226.261719 C 2054.609375 2263.339844 2024.550781 2293.410156 1987.46875 2293.410156 C 1950.378906 2293.410156 1920.320312 2263.339844 1920.320312 2226.261719 C 1920.320312 2189.171875 1950.378906 2159.109375 1987.46875 2159.109375 C 2024.550781 2159.109375 2054.609375 2189.171875 2054.609375 2226.261719 "/>
<path fill-rule="nonzero" fill="rgb(37.669373%, 78.196716%, 87.023926%)" fill-opacity="1" d="M 2523.148438 2061.839844 C 2523.148438 2092.699219 2498.128906 2117.710938 2467.28125 2117.710938 C 2436.421875 2117.710938 2411.410156 2092.699219 2411.410156 2061.839844 C 2411.410156 2030.988281 2436.421875 2005.980469 2467.28125 2005.980469 C 2498.128906 2005.980469 2523.148438 2030.988281 2523.148438 2061.839844 "/>
<path fill-rule="nonzero" fill="rgb(90.226746%, 5.207825%, 55.561829%)" fill-opacity="1" d="M 2423.878906 1315.621094 C 2423.878906 1356.648438 2390.609375 1389.921875 2349.578125 1389.921875 C 2308.550781 1389.921875 2275.28125 1356.648438 2275.28125 1315.621094 C 2275.28125 1274.589844 2308.550781 1241.328125 2349.578125 1241.328125 C 2390.609375 1241.328125 2423.878906 1274.589844 2423.878906 1315.621094 "/>
<path fill-rule="nonzero" fill="rgb(52.017212%, 14.964294%, 58.065796%)" fill-opacity="1" d="M 1719.949219 1332.191406 C 1719.949219 1376.480469 1684.039062 1412.390625 1639.75 1412.390625 C 1595.449219 1412.390625 1559.539062 1376.480469 1559.539062 1332.191406 C 1559.539062 1287.890625 1595.449219 1251.988281 1639.75 1251.988281 C 1684.039062 1251.988281 1719.949219 1287.890625 1719.949219 1332.191406 "/>
</svg>
