<svg version="1.2" xmlns="http://www.w3.org/2000/svg" viewBox="0 0 1794 1794" width="1794" height="1794">
	<title>avatar-people</title>
	<defs>
		<radialGradient id="g1" cx="0" cy="0" r="1" gradientUnits="userSpaceOnUse" gradientTransform="matrix(2000,0,0,2000,902,1059)">
			<stop offset="0" stop-color="#ffffff"/>
			<stop offset=".031" stop-color="#fefefe"/>
			<stop offset=".059" stop-color="#fdfdfd"/>
			<stop offset=".086" stop-color="#fdfdfd"/>
			<stop offset=".113" stop-color="#fcfcfc"/>
			<stop offset=".141" stop-color="#fcfcfc"/>
			<stop offset=".164" stop-color="#fbfbfb"/>
			<stop offset=".188" stop-color="#fbfbfb"/>
			<stop offset=".211" stop-color="#fafafa"/>
			<stop offset=".258" stop-color="#f9f9f9"/>
			<stop offset=".301" stop-color="#f8f8f8"/>
			<stop offset=".344" stop-color="#f7f7f7"/>
			<stop offset=".383" stop-color="#f7f7f7"/>
			<stop offset=".418" stop-color="#f6f6f6"/>
			<stop offset=".453" stop-color="#f5f5f5"/>
			<stop offset=".52" stop-color="#f5f5f5"/>
			<stop offset=".637" stop-color="#f4f4f4"/>
			<stop offset=".816" stop-color="#f3f3f3"/>
			<stop offset="1" stop-color="#f2f2f2"/>
		</radialGradient>
		<clipPath clipPathUnits="userSpaceOnUse" id="cp1">
			<path d="m-98 1930h2000v173h-2000z"/>
		</clipPath>
		<clipPath clipPathUnits="userSpaceOnUse" id="cp2">
			<path d="m902 1930.45c551.75 0 999.71 38.63 999.71 86.22 0 47.59-447.96 86.22-999.71 86.22-551.75 0-999.71-38.63-999.71-86.22 0-47.59 447.96-86.22 999.71-86.22z"/>
		</clipPath>
		<radialGradient id="g2" cx="0" cy="0" r="1" gradientUnits="userSpaceOnUse" gradientTransform="matrix(999.708,0,0,999.708,902,2016.67)">
			<stop offset="0" stop-color="#d9d9d9"/>
			<stop offset=".031" stop-color="#dadada"/>
			<stop offset=".059" stop-color="#dbdbdb"/>
			<stop offset=".086" stop-color="#dbdbdb"/>
			<stop offset=".113" stop-color="#dcdcdc"/>
			<stop offset=".141" stop-color="#dddddd"/>
			<stop offset=".164" stop-color="#dddddd"/>
			<stop offset=".188" stop-color="#dedede"/>
			<stop offset=".211" stop-color="#dedede"/>
			<stop offset=".234" stop-color="#dfdfdf"/>
			<stop offset=".258" stop-color="#e0e0e0"/>
			<stop offset=".277" stop-color="#e0e0e0"/>
			<stop offset=".297" stop-color="#e1e1e1"/>
			<stop offset=".316" stop-color="#e1e1e1"/>
			<stop offset=".355" stop-color="#e2e2e2"/>
			<stop offset=".395" stop-color="#e3e3e3"/>
			<stop offset=".43" stop-color="#e4e4e4"/>
			<stop offset=".465" stop-color="#e5e5e5"/>
			<stop offset=".496" stop-color="#e6e6e6"/>
			<stop offset=".527" stop-color="#e7e7e7"/>
			<stop offset=".555" stop-color="#e7e7e7"/>
			<stop offset=".582" stop-color="#e8e8e8"/>
			<stop offset=".605" stop-color="#e8e8e8"/>
			<stop offset=".629" stop-color="#e9e9e9"/>
			<stop offset=".648" stop-color="#eaeaea"/>
			<stop offset=".668" stop-color="#eaeaea"/>
			<stop offset=".707" stop-color="#ebebeb"/>
			<stop offset=".742" stop-color="#ececec"/>
			<stop offset=".773" stop-color="#ededed"/>
			<stop offset=".801" stop-color="#ededed"/>
			<stop offset=".824" stop-color="#eeeeee"/>
			<stop offset=".844" stop-color="#efefef"/>
			<stop offset=".883" stop-color="#f0f0f0"/>
			<stop offset=".91" stop-color="#f0f0f0"/>
			<stop offset=".93" stop-color="#f1f1f1"/>
			<stop offset=".965" stop-color="#f2f2f2"/>
			<stop offset="1" stop-color="#f2f2f2"/>
		</radialGradient>
	</defs>
	<style>
		.s0 { fill: url(#g1) } 
		.s1 { fill: url(#g2) } 
		.s2 { fill: #000000 } 
	</style>
	<path fill-rule="evenodd" class="s0" d="m-1498-1341h4800v4800h-4800z"/>
	<g id="Clip-Path" clip-path="url(#cp1)">
		<g>
			<g id="Clip-Path" clip-path="url(#cp2)">
				<g>
					<path class="s1" d="m-97.7 1930.4v172.5h1999.4v-172.5z"/>
				</g>
			</g>
		</g>
	</g>
	<path fill-rule="evenodd" class="s2" d="m902 51.9c462.7 0 838.3 375.7 838.3 838.3 0 462.7-375.6 838.3-838.3 838.3-462.7 0-838.3-375.6-838.3-838.3 0-462.6 375.6-838.3 838.3-838.3zm0 1483.2c181.4 0 345.5-75.1 462.7-195.9-67.3-114.3-191.5-191.1-333.7-191.1-84.4 0-173.6 0-258 0-142.2 0-266.4 76.8-333.7 191.1 117.2 120.8 281.3 195.9 462.7 195.9zm-257.9-838.3c0 142.3 115.5 257.9 257.9 257.9 142.4 0 257.9-115.6 257.9-257.9 0-142.4-115.5-258-257.9-258-142.4 0-257.9 115.6-257.9 258z"/>
</svg>